# Alias OBJ Model File
# Exported from SketchUp, (c) 2000-2012 Trimble Navigation Limited
# File units = meters

mtllib 02.mtl

g Mesh1 Model

usemtl Rough_Square_Concrete_Block
v 3.23406 77.82 -18.9687
vt -0.0355391 0.208447
vn 0 -1 -0
v 15.0414 77.82 -18.9687
vt -0.165291 0.208447
v 15.0414 77.82 32.4739
vt -0.165291 -0.356856
v 3.23406 77.82 31.6887
vt -0.0355391 -0.348227
f 1/1/1 2/2/1 3/3/1 4/4/1 

v 3.23406 0 -18.9687
vt 0.0355391 0
vn 0 0 1
v 15.0414 0 -18.9687
vt 0.165291 0
v 15.0414 15.98 -18.9687
vt 0.165291 0.175604
vt 0.165291 0.855165
vt 0.0355391 0.855165
f 5/5/2 6/6/2 7/7/2 2/8/2 1/9/2 

v 98.1101 0 -18.9687
vt 1.07813 0
v 98.1101 15.98 -18.9687
vt 1.07813 0.175604
f 6/6/2 8/10/2 9/11/2 7/7/2 

v 105.084 0 -18.9687
vt 1.15477 0
v 105.084 80.93 -18.9687
vt 1.15477 0.889341
v 98.1101 80.93 -18.9687
vt 1.07813 0.889341
f 8/10/2 10/12/2 11/13/2 12/14/2 9/11/2 

vt -0.208447 0
vn -1 0 -0
v 105.084 0 38.4622
vt 0.422661 0
v 105.084 9.91 38.4622
vt 0.422661 0.108901
v 105.084 80.93 38.4622
vt 0.422661 0.889341
vt -0.208447 0.889341
f 10/15/3 13/16/3 14/17/3 15/18/3 11/19/3 

v 105.084 0 51.2496
vt 0.563182 0
v 105.084 6.39 51.2496
vt 0.563182 0.0702198
v 105.084 9.91 51.2496
vt 0.563182 0.108901
f 13/16/3 16/20/3 17/21/3 18/22/3 14/17/3 

v 105.084 0 63.0427
vt 0.692777 0
v 105.084 2.88 63.0427
vt 0.692777 0.0316484
v 105.084 6.39 63.0427
vt 0.692777 0.0702198
f 16/20/3 19/23/3 20/24/3 21/25/3 17/21/3 

v 105.084 0 78.7013
vt 0.864849 0
v 105.084 2.88 78.7013
vt 0.864849 0.0316484
f 19/23/3 22/26/3 23/27/3 20/24/3 

vt -1.15477 0
vn 0 0 -1
v 3.23406 0 78.7013
vt -0.0355391 0
v 3.23406 2.88 78.7013
vt -0.0355391 0.0316484
vt -1.15477 0.0316484
f 22/28/4 24/29/4 25/30/4 23/31/4 

vt -0.864849 0
vn 1 0 -0
v 3.23406 0 63.0427
vt -0.692777 0
v 3.23406 2.88 63.0427
vt -0.692777 0.0316484
vt -0.864849 0.0316484
f 24/32/5 26/33/5 27/34/5 25/35/5 

v 3.23406 0 47.24
vt -0.519121 0
v 3.23406 6.39 47.24
vt -0.519121 0.0702198
v 3.23406 6.39 63.0427
vt -0.692777 0.0702198
f 26/33/5 28/36/5 29/37/5 30/38/5 27/34/5 

v 3.23406 0 31.6887
vt -0.348227 0
v 3.23406 9.91 31.6887
vt -0.348227 0.108901
v 3.23406 9.91 47.24
vt -0.519121 0.108901
f 28/36/5 31/39/5 32/40/5 33/41/5 29/37/5 

vt 0.208447 0
vt 0.208447 0.855165
vt -0.348227 0.855165
f 31/39/5 5/42/5 1/43/5 4/44/5 32/40/5 

v 15.0414 15.98 32.4739
vt -0.188607 0.175604
vn 0.0663581 0 -0.997796
v 15.0414 9.91 32.4739
vt -0.188607 0.108901
vt -0.0585684 0.108901
vt -0.0585684 0.855165
vt -0.188607 0.855165
f 34/45/6 35/46/6 32/47/6 4/48/6 3/49/6 

v 98.1101 15.98 37.9984
vt -1.10347 0.175604
v 98.1101 9.91 37.9984
vt -1.10347 0.108901
f 36/50/6 37/51/6 35/46/6 34/45/6 

vt -1.18027 0.889341
vt -1.18027 0.108901
v 98.1101 80.93 37.9984
vt -1.10347 0.889341
f 15/52/6 14/53/6 37/51/6 36/50/6 38/54/6 

vt -0.0355391 -0.519121
vt -1.07813 -0.417564
vt -1.15477 -0.422661
vt -1.15477 -0.563182
f 33/55/1 32/4/1 35/3/1 37/56/1 14/57/1 18/58/1 

vt -1.17603 0.108901
vn 0.0393376 0 -0.999226
vt -1.17603 0.0702198
vt -0.0559325 0.0702198
vt -0.0559325 0.108901
f 18/59/7 17/60/7 29/61/7 33/62/7 

vt -0.0355391 -0.692777
vt -1.15477 -0.692777
f 30/63/1 29/55/1 17/58/1 21/64/1 

vt -1.15477 0.0702198
vt -0.0355391 0.0702198
f 21/65/4 20/31/4 27/30/4 30/66/4 

vt -0.0355391 -0.864849
vt -1.15477 -0.864849
f 25/67/1 27/63/1 20/64/1 23/68/1 

vt -0.417564 0.889341
vt -0.417564 0.175604
vt 0.208447 0.175604
vt 0.208447 0.889341
f 38/69/5 36/70/5 9/71/5 12/72/5 

vt -1.07813 0.208447
f 36/56/1 34/3/1 7/2/1 9/73/1 

vt -0.208447 0.855165
vt -0.208447 0.175604
vt 0.356856 0.175604
vt 0.356856 0.855165
f 2/74/3 7/75/3 34/76/3 3/77/3 

vt -1.15477 0.208447
f 15/57/1 38/56/1 12/73/1 11/78/1 

g Mesh2 Model

v -251.39 0 64.9238
vt 2.76253 -0.713448
v -251.39 0 -55.3662
vt 2.76253 0.60842
v -96.4301 0 -55.3662
vt 1.05967 0.60842
v -96.4301 0 64.9238
vt 1.05967 -0.713448
f 39/79/1 40/80/1 41/81/1 42/82/1 

vt -0.60842 0
vt 0.713448 0
v -251.39 34.73 64.9238
vt 0.713448 0.381648
v -251.39 34.73 -55.3662
vt -0.60842 0.381648
f 40/83/3 39/84/3 43/85/3 44/86/3 

vt -2.76253 0
vt -1.05967 0
v -96.4301 34.73 64.9238
vt -1.05967 0.381648
vt -2.76253 0.381648
f 39/87/2 42/88/2 45/89/2 43/90/2 

vt -0.713448 0
vt 0.60842 0
v -96.4301 34.73 -55.3662
vt 0.60842 0.381648
vt -0.713448 0.381648
f 42/91/5 41/92/5 46/93/5 45/94/5 

vt 1.05967 0
vt 2.76253 0
vt 2.76253 0.381648
vt 1.05967 0.381648
f 41/95/4 40/96/4 44/97/4 46/98/4 

vt -2.76253 0.60842
vn 0 1 -0
vt -2.76253 -0.713448
vt -1.05967 -0.713448
vt -1.05967 0.60842
f 44/99/8 43/100/8 45/101/8 46/102/8 

