# Alias OBJ Model File
# Exported from SketchUp, (c) 2000-2012 Trimble Navigation Limited
# File units = meters

mtllib 04.mtl

g Mesh1 Model

usemtl Rough_Square_Concrete_Block
v 361.495 0 -405.13
vt 3.97247 4.45198
vn 0 1 -0
v 184.575 0 -524.94
vt 2.0283 5.76857
v 184.575 0 -405.13
vt 2.0283 4.45198
f 1/1/1 2/2/1 3/3/1

v 361.495 0 -524.94
vt 3.97247 5.76857
f 2/2/1 1/1/1 4/4/1

usemtl BackColor
vt 7266.74 15950
vn -0 -1 0
vt 7266.74 20666.9
vt 14232.1 15950
f 3/5/2 2/6/2 1/7/2

usemtl Rough_Square_Concrete_Block
vt -5.76857 0
vn -1 0 -0
v 184.575 -32.67 -405.13
vt -4.45198 -0.359011
vt -4.45198 0
f 2/8/3 5/9/3 3/10/3

v 184.575 -32.67 -524.94
vt -5.76857 -0.359011
f 5/9/3 2/8/3 6/11/3

usemtl BackColor
vt -15950 0
vn 1 -0 0
vt -15950 -1286.22
vt -20666.9 0
f 3/12/4 5/13/4 2/14/4

usemtl Rough_Square_Concrete_Block
vt 2.0283 -0.359011
vn 0 0 1
vt 3.97247 0
vt 2.0283 0
f 5/15/5 1/16/5 3/17/5

v 361.495 -32.67 -405.13
vt 3.97247 -0.359011
f 1/16/5 5/15/5 7/18/5

usemtl BackColor
vt 14232.1 -1286.22
vn -0 -0 -1
vt 7266.74 -1286.22
vt 14232.1 0
f 7/19/6 5/20/6 1/21/6

usemtl Rough_Square_Concrete_Block
vt -2.0283 4.45198
vn 0 -1 -0
v 361.495 -32.67 -524.94
vt -3.97247 5.76857
vt -3.97247 4.45198
f 5/22/7 8/23/7 7/24/7

vt -2.0283 5.76857
f 8/23/7 5/22/7 6/25/7

usemtl BackColor
vt -7266.74 20666.9
vn -0 1 0
vt -7266.74 15950
vt -14232.1 20666.9
f 6/26/8 5/27/8 8/28/8

vt -20666.9 -1286.22
f 6/29/4 2/14/4 5/13/4

usemtl Rough_Square_Concrete_Block
vt -2.0283 0
vn 0 0 -1
vt -3.97247 -0.359011
vt -2.0283 -0.359011
f 2/30/9 8/31/9 6/32/9

vt -3.97247 0
f 8/31/9 2/30/9 4/33/9

usemtl BackColor
vt -7266.74 -1286.22
vn -0 -0 1
vt -14232.1 -1286.22
vt -7266.74 0
f 6/34/10 8/35/10 2/36/10

vt -14232.1 0
f 4/37/10 2/36/10 8/35/10

vt 14232.1 20666.9
f 4/38/2 1/7/2 2/6/2

usemtl Rough_Square_Concrete_Block
vt 4.45198 0
vn 1 0 -0
vt 5.76857 -0.359011
vt 5.76857 0
f 1/39/11 8/40/11 4/41/11

vt 4.45198 -0.359011
f 8/40/11 1/39/11 7/42/11

usemtl BackColor
vt 15950 -1286.22
vn -1 -0 0
vt 15950 0
vt 20666.9 -1286.22
f 7/43/12 1/44/12 8/45/12

vt 20666.9 0
f 4/46/12 8/45/12 1/44/12

vt -14232.1 15950
f 7/47/8 8/28/8 5/27/8

vt 7266.74 0
f 3/48/6 1/21/6 5/20/6

g Mesh2 Model

l 4 2

l 1 4

l 3 1

l 2 3

l 2 6

l 8 6

l 7 8

l 1 7

l 5 7

l 3 5

l 6 5

l 4 8

