# Alias OBJ Model File
# Exported from SketchUp, (c) 2000-2012 Trimble Navigation Limited
# File units = meters

mtllib 08.mtl

g Mesh1 Model

usemtl Rough_Square_Concrete_Block
v 15.0414 15.98 -18.9687
vt -0.165291 0.175604
vn 0 0 -1
v 98.1101 0 -18.9687
vt -1.07813 0
v 15.0414 0 -18.9687
vt -0.165291 0
f 1/1/1 2/2/1 3/3/1

v 98.1101 15.98 -18.9687
vt -1.07813 0.175604
f 2/2/1 1/1/1 4/4/1

vt -1.07813 0.208447
vn 0 -1 -0
v 15.0414 15.98 31.6887
vt -0.165291 -0.348227
vt -0.165291 0.208447
f 4/5/2 5/6/2 1/7/2

v 15.0414 15.98 32.4739
vt -0.165291 -0.356856
f 5/6/2 4/5/2 6/8/2

v 100.95 15.98 37.9984
vt -1.10934 -0.417564
f 6/8/2 4/5/2 7/9/2

vt -0.472282 -1.08031
vn 0.0351894 0.999379 -0.00175431
vt 0.154507 -1.08031
v 98.1101 16.08 37.9984
vt -0.470728 -1.04912
f 7/10/3 4/11/3 8/12/3

v 98.1101 16.08 -18.9687
vt 0.208447 0.176703
vn 1 0 -0
vt -0.417564 0.176703
vt 0.208447 0.175604
f 9/13/4 8/14/4 4/15/4

v 15.0414 16.08 -18.9687
vt 0.165291 0.208447
vn 0 1 -0
vt 1.07813 -0.417564
vt 1.07813 0.208447
f 10/16/5 8/17/5 9/18/5

v 15.0414 16.08 31.6887
vt 0.165291 -0.348227
f 11/19/5 8/17/5 10/16/5

v 15.0414 16.08 32.4739
vt 0.165291 -0.356856
f 8/17/5 11/19/5 12/20/5

vt 0.348227 0.176703
vn -1 0 -0
vt 0.356856 0.175604
vt 0.356856 0.176703
f 11/21/6 6/22/6 12/23/6

vt 0.348227 0.175604
f 6/22/6 11/21/6 5/24/6

v 3.23406 71.82 31.6887
vt 0.0355391 0.789231
vn 0 0 1
vt 0.165291 0.175604
vt 0.165291 0.176703
f 13/25/7 5/26/7 11/27/7

v 3.23406 9.91 31.6887
vt 0.0355391 0.108901
f 14/28/7 5/26/7 13/25/7

v 3.23406 0 31.6887
vt 0.0355391 0
f 15/29/7 5/26/7 14/28/7

v 15.0414 0 31.6887
vt 0.165291 0
f 5/26/7 15/29/7 16/30/7

usemtl FrontColor
vt 127.325 -1247.58
v 105.084 0 78.7013
vt 4137.17 -3098.48
vt 592.183 -1247.58
f 15/31/5 17/32/5 16/33/5

v 3.23406 0 47.24
vt 127.325 -1859.84
f 18/34/5 17/32/5 15/31/5

v 3.23406 0 63.0427
vt 127.325 -2482
f 19/35/5 17/32/5 18/34/5

v 3.23406 0 78.7013
vt 127.325 -3098.48
f 17/32/5 19/35/5 20/36/5

usemtl Rough_Square_Concrete_Block
vt -0.692777 0
v 3.23406 2.88 78.7013
vt -0.864849 0.0316484
vt -0.864849 0
f 19/37/4 21/38/4 20/39/4

v 3.23406 2.88 63.0427
vt -0.692777 0.0316484
f 21/38/4 19/37/4 22/40/4

vt -0.519121 0
f 18/41/4 22/40/4 19/37/4

v 3.23406 6.39 63.0427
vt -0.692777 0.0702198
f 22/40/4 18/41/4 23/42/4

v 3.23406 6.39 47.24
vt -0.519121 0.0702198
f 23/42/4 18/41/4 24/43/4

vt -0.348227 0
f 15/44/4 24/43/4 18/41/4

v 3.23406 9.91 47.24
vt -0.519121 0.108901
f 24/43/4 15/44/4 25/45/4

vt -0.348227 0.108901
f 25/45/4 15/44/4 14/46/4

vt 0.348227 0.108901
v 3.23406 71.82 -18.9687
vt -0.208447 0.789231
vt 0.348227 0
f 14/47/6 26/48/6 15/49/6

vt 0.348227 0.789231
f 26/48/6 14/47/6 13/50/6

v 15.0414 71.82 31.6887
vt 0.0355391 0.208447
vt 0.0355391 -0.348227
f 27/19/5 26/51/5 13/52/5

v 15.0414 71.82 -18.9687
f 26/51/5 27/19/5 28/16/5

f 28/48/6 11/21/6 27/50/6

vt -0.208447 0.176703
f 11/21/6 28/48/6 10/53/6

vt -0.165291 0.176703
vt -0.0355391 0.789231
vt -0.165291 0.789231
f 10/54/1 26/55/1 28/56/1

f 1/1/1 26/55/1 10/54/1

f 3/3/1 26/55/1 1/1/1

v 3.23406 0 -18.9687
vt -0.0355391 0
f 26/55/1 3/3/1 29/57/1

vt -0.208447 0
f 15/49/6 26/48/6 29/58/6

usemtl FrontColor
vt -746.799 0
vt -746.799 633.071
vt -746.799 629.134
f 3/59/6 10/60/6 1/61/6

vt 1247.58 0
f 16/62/6 10/60/6 3/59/6

vt 1247.58 629.134
f 5/63/6 10/60/6 16/62/6

vt 1247.58 633.071
f 10/60/6 5/63/6 11/64/6

vt 592.183 746.799
f 16/33/5 17/32/5 3/65/5

v 98.5141 0 38.354
vt 3878.51 -1510
f 3/65/5 17/32/5 30/66/5

v 105.084 0 38.354
vt 4137.17 -1510
f 30/66/5 17/32/5 31/67/5

v 105.084 0 63.0427
vt 4137.17 -2482
f 31/67/5 17/32/5 32/68/5

usemtl Rough_Square_Concrete_Block
vt 0.864849 0
v 105.084 2.88 63.0427
vt 0.692777 0.0316484
vt 0.692777 0
f 17/69/6 33/70/6 32/71/6

v 105.084 2.88 78.7013
vt 0.864849 0.0316484
f 33/70/6 17/69/6 34/72/6

vt -1.15477 0
vt -0.0355391 0.0316484
vt -1.15477 0.0316484
f 17/73/1 21/74/1 34/75/1

f 21/74/1 17/73/1 20/57/1

vt -0.0355391 -0.864849
vt -1.15477 -0.692777
vt -1.15477 -0.864849
f 21/76/2 33/77/2 34/78/2

vt -0.0355391 -0.692777
f 33/77/2 21/76/2 22/79/2

vt -0.0355391 0.0702198
f 23/80/1 33/75/1 22/74/1

v 105.084 6.39 63.0427
vt -1.15477 0.0702198
f 33/75/1 23/80/1 35/81/1

v 105.084 6.39 50.6528
vt -1.15477 -0.556624
f 23/79/2 36/82/2 35/77/2

vt -0.0355391 -0.519121
f 36/82/2 23/79/2 24/83/2

vt -0.0529043 0.108901
vn 0.0334896 0 -0.999439
vt -1.17276 0.0702198
vt -0.0529043 0.0702198
f 25/84/8 36/85/8 24/86/8

v 105.084 9.91 50.6528
vt -1.17276 0.108901
f 36/85/8 25/84/8 37/87/8

v 15.0414 9.91 32.4739
f 25/83/2 38/8/2 37/82/2

vt -0.0355391 -0.348227
f 38/8/2 25/83/2 14/88/2

v 100.95 9.91 37.9984
f 37/82/2 38/8/2 39/9/2

vt 1.13385 0.175604
vn -0.0641736 -1.968e-31 0.997939
vt 0.187851 0.108901
vt 1.13385 0.108901
f 7/89/9 38/90/9 39/91/9

vt 0.187851 0.175604
f 38/90/9 7/89/9 6/92/9

vt 1.13385 0.387384
vn -0.0308698 -0.876701 0.480044
vt 1.10271 0.389668
vt 0.187851 0.387384
f 7/93/10 8/94/10 6/95/10

vt 0.188607 0.176703
vn -0.0663581 4.30491e-15 0.997796
vt 0.188607 0.175604
vt 1.10347 0.176703
f 12/96/11 6/97/11 8/98/11

v 105.084 9.91 38.354
vt -1.15477 -0.421472
f 37/82/2 39/9/2 40/99/2

vt 0.421472 0.108901
vt 0.556624 0.0702198
vt 0.556624 0.108901
f 40/100/6 36/101/6 37/102/6

vt 0.421472 0
f 31/103/6 36/101/6 40/100/6

v 105.084 0 51.2496
vt 0.563182 0
f 36/101/6 31/103/6 41/104/6

usemtl FrontColor
vt 4137.17 -2017.7
f 31/67/5 32/68/5 41/105/5

usemtl Rough_Square_Concrete_Block
f 32/71/6 36/101/6 41/104/6

f 33/70/6 36/101/6 32/71/6

vt 0.692777 0.0702198
f 36/101/6 33/70/6 35/106/6

vt 1.15477 0.108901
vt 1.08257 0
vt 1.15477 0
f 40/107/7 30/108/7 31/109/7

v 98.5141 74.75 38.354
vt 1.08257 0.821429
f 30/108/7 40/107/7 42/110/7

v 105.084 74.75 38.354
vt 1.15477 0.821429
f 42/110/7 40/107/7 43/111/7

vt -0.421472 0.108901
v 105.084 0 -18.9687
vt 0.208447 0
vt -0.421472 0.821429
f 40/112/4 44/113/4 43/114/4

vt -0.421472 0
f 44/113/4 40/112/4 31/115/4

v 105.084 74.75 -18.9687
vt 0.208447 0.821429
f 43/114/4 44/113/4 45/116/4

vt -1.15477 0.821429
f 44/73/1 4/4/1 45/117/1

f 4/4/1 44/73/1 2/2/1

vt -0.200844 -2.77828e-19
vn -0.999975 -2.57349e-19 0.00704728
vt -0.200844 0.176703
vt -0.200844 0.175604
f 2/118/12 9/119/12 4/120/12

v 98.1101 74.75 -18.9687
vt -0.200844 0.821429
f 2/118/12 46/121/12 9/119/12

vt 0.429091 -2.77828e-19
f 30/122/12 46/121/12 2/118/12

vt 0.429091 0.821429
f 46/121/12 30/122/12 42/123/12

vt 1.08257 -0.421472
vt 1.15477 0.208447
f 42/124/5 45/125/5 46/18/5

vt 1.15477 -0.421472
f 45/125/5 42/124/5 43/126/5

vt -1.07813 0.176703
vt -1.07813 0.821429
f 45/117/1 9/127/1 46/128/1

f 45/117/1 4/4/1 9/127/1

f 4/4/1 10/54/1 9/127/1

f 10/54/1 4/4/1 1/1/1

usemtl FrontColor
vt 3862.6 746.799
f 3/65/5 30/66/5 2/129/5

usemtl Rough_Square_Concrete_Block
vt 0.165291 0.789231
f 13/25/7 11/27/7 27/130/7

