# Alias OBJ Model File
# Exported from SketchUp, (c) 2000-2012 Trimble Navigation Limited
# File units = meters

mtllib 12.mtl

g Mesh1 Model

usemtl Brick_Antique_01
v 136.948 0 -85.9203
vt -0.931622 0.91623
vn 0 -1 -0
v 49.7584 0 -77.1403
vt -0.338492 0.822603
v 49.7584 0 -85.9203
vt -0.338492 0.91623
f 1/1/1 2/2/1 3/3/1

v 49.7584 0 101.48
vt -0.338492 -1.08215
f 2/2/1 1/1/1 4/4/1

v 224.138 0 101.48
vt -1.52475 -1.08215
f 4/4/1 1/1/1 5/5/1

v 224.138 0 -85.9203
vt -1.52475 0.91623
f 5/5/1 1/1/1 6/6/1

vt -0.931622 0
vn 0 0 -1
v 148.837 25.12 -85.9203
vt -1.01249 0.267873
vt -1.52475 0
f 1/7/2 7/8/2 6/9/2

v 136.948 35.67 -85.9203
vt -0.931622 0.380375
f 7/8/2 1/7/2 8/10/2

v 49.7584 35.67 -85.9203
vt -0.338492 0.380375
f 1/7/2 9/11/2 8/10/2

vt -0.338492 0
f 9/11/2 1/7/2 3/12/2

v 49.6184 179.87 -85.9203
vt -0.33754 1.91808
f 3/12/2 10/13/2 9/11/2

v 49.6184 0 -85.9203
vt -0.33754 0
f 10/13/2 3/12/2 11/14/2

usemtl FrontColor
vt -1958.99 3382.69
v 49.6184 0 -77.1403
vt -1953.48 3037.02
vt -1953.48 3382.69
f 3/15/1 12/16/1 11/17/1

vt -1958.99 3037.02
f 12/16/1 3/15/1 2/18/1

vt -3037.02 0
vn -1 0 -0
vt -3382.69 1404.33
vt -3382.69 0
f 2/19/3 9/20/3 3/21/3

v 49.7584 35.67 -77.1403
vt -3037.02 1404.33
f 9/20/3 2/19/3 13/22/3

usemtl Brick_Antique_01
vt 0.690338 0
vt -0.524764 0.380375
vt -0.524764 0
f 4/23/3 13/24/3 2/25/3

v 49.7584 35.67 101.48
vt 0.690338 0.380375
f 13/24/3 4/23/3 14/26/3

vt 0.338492 7.909e-32
vn -3.47156e-32 -7.30859e-32 1
v 205.685 7.29 101.48
vt 1.39922 0.0777386
vt 0.338492 0.380375
f 4/27/4 15/28/4 14/29/4

v 224.138 7.29 101.48
vt 1.52475 0.0777386
f 4/27/4 16/30/4 15/28/4

vt 1.52475 7.909e-32
f 16/30/4 4/27/4 5/31/4

vt 0.584492 0
vn 1 0 -0
vt -0.690338 0.0777386
vt -0.690338 0
f 6/32/5 16/33/5 5/34/5

v 224.138 7.29 -85.9203
vt 0.584492 0.0777386
f 16/33/5 6/32/5 17/35/5

vt -1.52475 0.0777386
v 205.685 7.29 -85.9203
vt -1.39922 0.0777386
f 17/36/2 6/9/2 18/37/2

v 180.372 14.96 -85.9203
vt -1.22702 0.159529
f 6/9/2 19/38/2 18/37/2

f 6/9/2 7/8/2 19/38/2

v 180.372 25.12 -85.9203
vt -1.22702 0.267873
f 20/39/2 19/38/2 7/8/2

v 180.372 25.12 101.48
vt -0.690338 0.267873
vt 0.584492 0.159529
vt 0.584492 0.267873
f 21/40/5 19/41/5 20/42/5

v 180.372 14.96 101.48
vt -0.690338 0.159529
f 19/41/5 21/40/5 22/43/5

v 148.837 25.12 101.48
vt 1.01249 0.267873
vt 1.22702 0.159529
vt 1.22702 0.267873
f 23/44/4 22/45/4 21/46/4

f 14/29/4 22/45/4 23/44/4

f 14/29/4 15/28/4 22/45/4

v 205.685 14.96 101.48
vt 1.39922 0.159529
f 22/45/4 15/28/4 24/47/4

f 18/35/5 24/43/5 15/33/5

v 205.685 14.96 -85.9203
f 24/43/5 18/35/5 25/41/5

vt -1.39922 0.159529
f 25/48/2 18/37/2 19/38/2

vt 1.22702 0.91623
vn 0 1 -0
vt 1.39922 -1.08215
vt 1.39922 0.91623
f 19/49/6 24/50/6 25/51/6

vt 1.22702 -1.08215
f 24/50/6 19/49/6 22/52/6

vt 1.52475 -1.08215
f 16/53/6 18/51/6 15/50/6

vt 1.52475 0.91623
f 18/51/6 16/53/6 17/54/6

v 148.837 35.67 101.48
vt 1.01249 0.380375
f 14/29/4 23/44/4 26/55/4

vt -0.690338 0.380375
f 7/42/5 26/56/5 23/40/5

v 148.837 35.67 -85.9203
vt 0.584492 0.380375
f 26/56/5 7/42/5 27/57/5

vt -1.01249 0.380375
f 7/8/2 8/10/2 27/58/2

vt 0.931622 0.91623
vn 1.43444e-17 1 -1.41177e-17
v 139.477 35.67 93.2297
vt 0.948826 -0.994176
vt 1.01249 0.91623
f 8/59/7 28/60/7 27/61/7

v 136.948 35.67 -77.1403
vt 0.931622 0.822603
f 29/62/7 28/60/7 8/59/7

v 55.2375 35.67 93.2297
vt 0.375765 -0.994176
f 29/62/7 30/63/7 28/60/7

vt 0.338492 0.822603
f 13/64/7 30/63/7 29/62/7

v 55.2375 35.67 101.48
vt 0.375765 -1.08215
f 13/64/7 31/65/7 30/63/7

vt 0.338492 -1.08215
f 31/65/7 13/64/7 14/66/7

v 139.477 35.67 101.48
vt 0.948826 0.380375
vt 0.375765 0.380375
f 14/29/4 32/67/4 31/68/4

f 14/29/4 26/55/4 32/67/4

vt 1.01249 -1.08215
vt 0.948826 -1.08215
f 26/69/7 28/60/7 32/70/7

f 27/61/7 28/60/7 26/69/7

f 30/63/6 32/70/6 28/60/6

f 32/70/6 30/63/6 31/65/6

vn -1 -1.60003e-16 1.88102e-31
v 55.2375 180.05 100.96
vt 0.686801 1.92
vt 0.634216 0.380375
f 31/26/8 33/71/8 30/72/8

v 55.2375 180.05 101.48
vt 0.690338 1.92
f 33/71/8 31/26/8 34/73/8

vn 0 0 1
v 139.477 180.05 101.48
vt 0.948826 1.92
vt 0.375765 1.92
f 31/68/9 35/74/9 34/75/9

f 35/74/9 31/68/9 32/67/9

vt -0.634216 0.380375
vt -0.690338 1.92
f 28/76/5 35/77/5 32/56/5

v 139.477 180.05 100.96
vt -0.686801 1.92
f 35/77/5 28/76/5 36/78/5

v 139.477 180.05 93.2297
vt -0.634216 1.92
f 36/78/5 28/76/5 37/79/5

vt -0.948826 0.380375
v 55.2375 180.05 93.2297
vt -0.375765 1.92
vt -0.948826 1.92
f 28/80/2 38/81/2 37/82/2

vt -0.375765 0.380375
f 38/81/2 28/80/2 30/83/2

vt 0.634216 1.92
f 30/72/8 33/71/8 38/84/8

v 55.2375 187.575 -85.4803
vt -0.581499 2.00025
f 33/71/3 39/85/3 38/84/3

v 55.2375 187.575 100.96
vt 0.686801 2.00025
f 39/85/3 33/71/3 40/86/3

v 139.477 187.575 100.96
vt 0.948826 2.00025
vt 0.375765 2.00025
f 33/75/9 41/87/9 40/88/9

f 41/87/9 33/75/9 36/74/9

vt 0.375765 -1.07661
vt 0.948826 -1.07661
f 33/89/6 35/70/6 36/90/6

f 35/70/6 33/89/6 34/65/6

f 36/90/6 38/63/6 33/89/6

f 38/63/6 36/90/6 37/60/6

vt -0.686801 2.00025
f 37/79/5 41/91/5 36/78/5

v 139.477 187.575 -85.4803
vt 0.581499 2.00025
f 41/91/5 37/79/5 42/92/5

v 139.477 180.05 -85.4803
vt 0.581499 1.92
f 42/92/5 37/79/5 43/93/5

vt -0.375765 -0.994176
vt -0.948826 0.911538
vt -0.948826 -0.994176
f 38/94/1 43/95/1 37/96/1

v 55.2375 180.05 -85.4803
vt -0.375765 0.911538
f 43/95/1 38/94/1 44/97/1

vt -0.581499 1.92
f 38/84/3 39/85/3 44/98/3

vt -0.375765 2.00025
f 39/99/2 43/82/2 44/81/2

vt -0.948826 2.00025
f 43/82/2 39/99/2 42/100/2

vt 0.375765 0.911538
vt 0.948826 0.911538
f 39/101/6 41/90/6 42/102/6

f 41/90/6 39/101/6 40/89/6

v 136.948 179.87 -77.1403
vt 0.931622 1.91808
vt 0.931622 0.380375
f 45/103/9 13/29/9 29/104/9

v 49.6184 179.87 -77.1403
vt 0.33754 1.91808
f 46/105/9 13/29/9 45/103/9

vt 0.33754 0
f 12/106/9 13/29/9 46/105/9

vt 0.338492 0
f 13/29/9 12/106/9 2/107/9

usemtl FrontColor
vt -3382.69 7081.5
vt -3037.02 7081.5
f 10/108/3 12/19/3 46/109/3

f 12/19/3 10/108/3 11/21/3

usemtl Brick_Antique_01
vt 0.33754 0.91623
vt 0.33754 0.822603
f 45/62/6 10/110/6 46/111/6

v 136.948 179.87 -85.9203
f 10/110/6 45/62/6 47/59/6

vt 0.524764 1.91808
vt 0.584492 1.91808
f 45/112/5 8/57/5 47/113/5

vt 0.524764 0.380375
f 8/57/5 45/112/5 29/114/5

vt 0.338492 0.91623
vn 6.6238e-17 1 -0
f 9/115/10 29/62/10 8/59/10

f 29/62/10 9/115/10 13/64/10

vt -0.931622 1.91808
f 9/11/2 47/116/2 8/10/2

f 47/116/2 9/11/2 10/13/2

f 21/52/6 7/61/6 23/69/6

f 7/61/6 21/52/6 20/49/6

