# Alias OBJ Model File
# Exported from SketchUp, (c) 2000-2012 Trimble Navigation Limited
# File units = meters

mtllib test1.mtl

g Mesh1 Model

usemtl FrontColor
v -49.3882 -44.11 -136.36
vt 1587.15 -1736.61
vn 0.588478 -2.02737e-16 0.808513
v -49.3882 -38.69 -136.36
vt 1587.15 -1523.23
v -112.953 -38.69 -90.0936
vt -1508.12 -1523.23
v -112.953 -44.11 -90.0936
vt -1508.12 -1736.61
f 1/1/1 2/2/1 3/3/1 4/4/1 

v -39.4379 -38.69 -90.0936
vt -3794.16 -1523.23
vn -0.977646 5.22312e-16 0.210258
v -41.1873 -38.69 -98.228
vt -4121.74 -1523.23
v -45.2877 -38.69 -117.294
vt -4889.53 -1523.23
vt -5657.31 -1523.23
vt -5657.31 -1736.61
v -39.4379 -44.11 -90.0936
vt -3794.16 -1736.61
f 5/5/2 6/6/2 7/7/2 2/8/2 1/9/2 8/10/2 

vt 4446.99 3546.99
vn -1.56078e-16 -1 2.39349e-17
vt 1944.42 5368.49
vt 1782.98 4617.87
vt 1621.55 3867.24
vt 1552.67 3546.99
v -107.379 -38.69 -34.9395
vt 4227.53 1375.57
v -108.816 -38.69 -49.1508
vt 4284.08 1935.07
f 3/11/3 2/12/3 7/13/3 6/14/3 5/15/3 9/16/3 10/17/3 

vn 0.588478 3.32902e-16 0.808513
v -49.3882 -33.86 -136.36
vt 1587.15 -1333.07
v -57.6941 -33.86 -130.314
vt 1182.7 -1333.07
v -112.953 -33.86 -90.0936
vt -1508.12 -1333.07
f 2/2/4 11/18/4 12/19/4 13/20/4 3/3/4 

vt 5368.49 -1736.61
vn 1 0 -0
v -49.3882 -44.9878 -142.276
vt 5601.41 -1771.17
v -49.3882 -44.9878 -162.04
vt 6379.51 -1771.17
v -49.3882 -9.70783 -162.04
vt 6379.51 -382.198
v -49.3882 -5.77529e-15 -162.04
vt 6379.51 -2.27374e-13
v -49.3882 -5.77529e-15 -136.36
vt 5368.49 -2.27374e-13
v -49.3882 -28.8224 -136.36
vt 5368.49 -1134.74
vt 5368.49 -1333.07
vt 5368.49 -1523.23
f 1/21/5 14/22/5 15/23/5 16/24/5 17/25/5 18/26/5 19/27/5 11/28/5 2/29/5 

vt -1944.42 6379.51
vn 9.79589e-17 1 6.01448e-18
v -104.603 0 -120.31
vt -4118.25 4736.61
v -112.953 0 -120.31
vt -4446.99 4736.61
v -112.953 0 -90.0936
vt -4446.99 3546.99
vt -1944.42 5368.49
f 17/30/6 20/31/6 21/32/6 22/33/6 18/34/6 

vn 0.588478 -2.92797e-17 0.808513
vt 1587.15 -1134.74
vt 1587.15 -3.87965e-13
vt -1508.12 -1.60591e-13
f 13/20/7 12/19/7 19/35/7 18/36/7 22/37/7 

vn 0.588478 1.37484e-16 0.808513
f 11/18/8 19/35/8 12/19/8

v -108.816 -33.86 -49.1508
vt -2356.05 -1333.07
vn -0.994932 0 0.100555
v -110.885 -33.86 -69.6222
vt -3166.11 -1333.07
vt -3976.18 -1333.07
vt -3976.18 -1523.23
vt -2356.05 -1523.23
f 23/38/9 24/39/9 13/40/9 3/41/9 10/42/9 

vt -1552.67 3546.99
vn -3.46717e-18 1 -5.90816e-17
v -112.953 -44.11 -37.9536
vt -4446.99 1494.23
f 8/43/10 1/34/10 4/33/10 25/44/10 

g Mesh2 Model

v -60.8097 81.2536 4.62023e-14
vt 2394.08 3198.96
vn 0 0 -1
v -59.1233 82.9819 4.62023e-14
vt 2327.69 3267
v -57.047 84.2147 4.62023e-14
vt 2245.94 3315.54
v -54.7223 84.8682 4.62023e-14
vt 2154.42 3341.27
v -52.3078 84.8977 4.62023e-14
vt 2059.36 3342.43
v -49.9678 84.3013 4.62023e-14
vt 1967.24 3318.95
v -47.862 83.1196 4.62023e-14
vt 1884.33 3272.42
v -46.1338 81.4331 4.62023e-14
vt 1816.29 3206.03
v -44.9009 79.3568 4.62023e-14
vt 1767.75 3124.28
v -44.2475 77.0322 4.62023e-14
vt 1742.03 3032.76
v -44.2179 74.6176 4.62023e-14
vt 1740.86 2937.7
v -44.8144 72.2777 4.62023e-14
vt 1764.34 2845.58
v -45.9961 70.1719 4.62023e-14
vt 1810.87 2762.67
v -47.6825 68.4437 4.62023e-14
vt 1877.26 2694.63
v -49.7588 67.2108 4.62023e-14
vt 1959.01 2646.09
v -52.0835 66.5573 4.62023e-14
vt 2050.53 2620.37
v -54.498 66.5278 4.62023e-14
vt 2145.59 2619.21
v -56.8379 67.1242 4.62023e-14
vt 2237.71 2642.69
v -58.9438 68.3059 4.62023e-14
vt 2320.62 2689.21
v -60.672 69.9924 4.62023e-14
vt 2388.66 2755.61
v -61.9048 72.0687 4.62023e-14
vt 2437.2 2837.35
v -62.5583 74.3933 4.62023e-14
vt 2462.93 2928.87
v -62.5878 76.8079 4.62023e-14
vt 2464.09 3023.93
v -61.9914 79.1478 4.62023e-14
vt 2440.61 3116.06
f 26/45/11 27/46/11 28/47/11 29/48/11 30/49/11 31/50/11 32/51/11 33/52/11 34/53/11 35/54/11 36/55/11 37/56/11 38/57/11 39/58/11 40/59/11 41/60/11 42/61/11 43/62/11 44/63/11 45/64/11 46/65/11 47/66/11 48/67/11 49/68/11 

vt 1.81899e-12 712.527
vn -0.618418 0.785849 -0
vt 1.81899e-12 617.458
vn -0.800739 0.599014 -0
v -60.8097 81.2536 20.2
vt 795.276 617.458
v -59.1233 82.9819 20.2
vt 795.276 712.527
f 27/69/12 26/70/13 50/71/13 51/72/12 

vt 1.81899e-12 1618.14
vt 1.81899e-12 1523.07
vn -0.92849 0.371356 -0
v -61.9914 79.1478 20.2
vt 795.276 1523.07
vt 795.276 1618.14
f 26/73/13 49/74/14 52/75/14 50/76/13 

vt 1.81899e-12 2416.72
vt 1.81899e-12 2321.65
vn -0.992967 0.118392 -0
v -62.5878 76.8079 20.2
vt 795.276 2321.65
vt 795.276 2416.72
f 49/77/14 48/78/15 53/79/15 52/80/14 

vt 1.81899e-12 3053.84
vt 1.81899e-12 2958.77
vn -0.989774 -0.142641 -0
v -62.5583 74.3933 20.2
vt 795.276 2958.77
vt 795.276 3053.84
f 48/81/15 47/82/16 54/83/16 53/84/15 

vt 1.81899e-12 3486.09
vt 1.81899e-12 3391.02
vn -0.91913 -0.393953 -0
v -61.9048 72.0687 20.2
vt 795.276 3391.02
vt 795.276 3486.09
f 47/85/16 46/86/17 55/87/17 54/88/16 

vt 1.81899e-12 3684
vt 1.81899e-12 3588.94
vn -0.785849 -0.618418 -0
v -60.672 69.9924 20.2
vt 795.276 3588.94
vt 795.276 3684
f 46/89/17 45/90/18 56/91/18 55/92/17 

vt 1.81899e-12 3634.1
vt 1.81899e-12 3539.03
vn -0.599014 -0.800739 -0
v -58.9438 68.3059 20.2
vt 795.276 3539.03
vt 795.276 3634.1
f 45/93/18 44/94/19 57/95/19 56/96/18 

vt 1.81899e-12 3339.78
vt 1.81899e-12 3244.71
vn -0.371356 -0.92849 -0
v -56.8379 67.1242 20.2
vt 795.276 3244.71
vt 795.276 3339.78
f 44/97/19 43/98/20 58/99/20 57/100/19 

vt 1.81899e-12 2821.1
vt 1.81899e-12 2726.03
vn -0.118392 -0.992967 -0
v -54.498 66.5278 20.2
vt 795.276 2726.03
vt 795.276 2821.1
f 43/101/20 42/102/21 59/103/21 58/104/20 

vt -1.81899e-12 -2113.4
vt -1.81899e-12 -2018.33
vn 0.142641 -0.989774 -0
v -52.0835 66.5573 20.2
vt -795.276 -2018.33
vt -795.276 -2113.4
f 42/105/21 41/106/22 60/107/22 59/108/21 

vt -1.81899e-12 -1264.92
vt -1.81899e-12 -1169.85
vn 0.393953 -0.91913 -0
v -49.7588 67.2108 20.2
vt -795.276 -1169.85
vt -795.276 -1264.92
f 41/109/22 40/110/23 61/111/23 60/112/22 

vt -1.81899e-12 -333.472
vt -1.81899e-12 -238.404
vn 0.618418 -0.785849 -0
v -47.6825 68.4437 20.2
vt -795.276 -238.404
vt -795.276 -333.472
f 40/113/23 39/114/24 62/115/24 61/116/23 

vt -1.81899e-12 617.458
vt -1.81899e-12 712.527
vn 0.800739 -0.599014 -0
v -45.9961 70.1719 20.2
vt -795.276 712.527
vt -795.276 617.458
f 39/117/24 38/118/25 63/119/25 62/120/24 

vt -1.81899e-12 1523.07
vt -1.81899e-12 1618.14
vn 0.92849 -0.371356 -0
v -44.8144 72.2777 20.2
vt -795.276 1618.14
vt -795.276 1523.07
f 38/121/25 37/122/26 64/123/26 63/124/25 

vt -1.81899e-12 2321.65
vt -1.81899e-12 2416.72
vn 0.992967 -0.118392 -0
v -44.2179 74.6176 20.2
vt -795.276 2416.72
vt -795.276 2321.65
f 37/125/26 36/126/27 65/127/27 64/128/26 

vt -1.81899e-12 2958.77
vt -1.81899e-12 3053.84
vn 0.989774 0.142641 -0
v -44.2475 77.0322 20.2
vt -795.276 3053.84
vt -795.276 2958.77
f 36/129/27 35/130/28 66/131/28 65/132/27 

vt -1.81899e-12 3391.02
vt -1.81899e-12 3486.09
vn 0.91913 0.393953 -0
v -44.9009 79.3568 20.2
vt -795.276 3486.09
vt -795.276 3391.02
f 35/133/28 34/134/29 67/135/29 66/136/28 

vt -1.81899e-12 3588.94
vt -1.81899e-12 3684
vn 0.785849 0.618418 -0
v -46.1338 81.4331 20.2
vt -795.276 3684
vt -795.276 3588.94
f 34/137/29 33/138/30 68/139/30 67/140/29 

vt -1.81899e-12 3539.03
vt -1.81899e-12 3634.1
vn 0.599014 0.800739 -0
v -47.862 83.1196 20.2
vt -795.276 3634.1
vt -795.276 3539.03
f 33/141/30 32/142/31 69/143/31 68/144/30 

vt -1.81899e-12 3244.71
vt -1.81899e-12 3339.78
vn 0.371356 0.92849 -0
v -49.9678 84.3013 20.2
vt -795.276 3339.78
vt -795.276 3244.71
f 32/145/31 31/146/32 70/147/32 69/148/31 

vt -1.81899e-12 2726.03
vt -1.81899e-12 2821.1
vn 0.118392 0.992967 -0
v -52.3078 84.8977 20.2
vt -795.276 2821.1
vt -795.276 2726.03
f 31/149/32 30/150/33 71/151/33 70/152/32 

vt 1.81899e-12 -2018.33
vt 1.81899e-12 -2113.4
vn -0.142641 0.989774 -0
v -54.7223 84.8682 20.2
vt 795.276 -2113.4
vt 795.276 -2018.33
f 30/153/33 29/154/34 72/155/34 71/156/33 

vt 1.81899e-12 -1169.85
vt 1.81899e-12 -1264.92
vn -0.393953 0.91913 -0
v -57.047 84.2147 20.2
vt 795.276 -1264.92
vt 795.276 -1169.85
f 29/157/34 28/158/35 73/159/35 72/160/34 

vt 1.81899e-12 -238.404
vt 1.81899e-12 -333.472
vt 795.276 -333.472
vt 795.276 -238.404
f 28/161/35 27/162/12 51/163/12 73/164/35 

vt -2327.69 3267
vn 0 0 1
vt -2394.08 3198.96
vt -2440.61 3116.06
vt -2464.09 3023.93
vt -2462.93 2928.87
vt -2437.2 2837.35
vt -2388.66 2755.61
vt -2320.62 2689.21
vt -2237.71 2642.69
vt -2145.59 2619.21
vt -2050.53 2620.37
vt -1959.01 2646.09
vt -1877.26 2694.63
vt -1810.87 2762.67
vt -1764.34 2845.58
vt -1740.86 2937.7
vt -1742.03 3032.76
vt -1767.75 3124.28
vt -1816.29 3206.03
vt -1884.33 3272.42
vt -1967.24 3318.95
vt -2059.36 3342.43
vt -2154.42 3341.27
vt -2245.94 3315.54
f 51/165/36 50/166/36 52/167/36 53/168/36 54/169/36 55/170/36 56/171/36 57/172/36 58/173/36 59/174/36 60/175/36 61/176/36 62/177/36 63/178/36 64/179/36 65/180/36 66/181/36 67/182/36 68/183/36 69/184/36 70/185/36 71/186/36 72/187/36 73/188/36 

g Mesh3 Model

v -446.617 0 -367.125
vt 17583.3 14453.7
vn 0 -1 -0
v -450.674 0 -364.011
vt 17743.1 14331.2
v -455.4 0 -362.054
vt 17929.1 14254.1
v -460.471 0 -361.386
vt 18128.8 14227.8
v -465.542 0 -362.054
vt 18328.4 14254.1
v -470.267 0 -364.011
vt 18514.5 14331.2
v -474.325 0 -367.125
vt 18674.2 14453.7
v -477.438 0 -371.183
vt 18796.8 14613.5
v -479.396 0 -375.908
vt 18873.8 14799.5
v -480.063 0 -380.979
vt 18900.1 14999.2
v -479.396 0 -386.05
vt 18873.8 15198.8
v -477.438 0 -390.775
vt 18796.8 15384.9
v -474.325 0 -394.833
vt 18674.2 15544.6
v -470.267 0 -397.947
vt 18514.5 15667.2
v -465.542 0 -399.904
vt 18328.4 15744.3
v -460.471 0 -400.572
vt 18128.8 15770.5
v -455.4 0 -399.904
vt 17929.1 15744.3
v -450.674 0 -397.947
vt 17743.1 15667.2
v -446.617 0 -394.833
vt 17583.3 15544.6
v -443.503 0 -390.775
vt 17460.8 15384.9
v -441.546 0 -386.05
vt 17383.7 15198.8
v -440.878 0 -380.979
vt 17357.4 14999.2
v -441.546 0 -375.908
vt 17383.7 14799.5
v -443.503 0 -371.183
vt 17460.8 14613.5
f 74/189/37 75/190/37 76/191/37 77/192/37 78/193/37 79/194/37 80/195/37 81/196/37 82/197/37 83/198/37 84/199/37 85/200/37 86/201/37 87/202/37 88/203/37 89/204/37 90/205/37 91/206/37 92/207/37 93/208/37 94/209/37 95/210/37 96/211/37 97/212/37 

g Mesh4 Model

v -439.887 20.5839 -445.333
vt -17318.4 810.389
v -445.916 25.21 -445.333
vt -17555.7 992.52
v -452.937 28.1181 -445.333
vt -17832.1 1107.01
v -460.471 29.11 -445.333
vt -18128.8 1146.06
v -468.005 28.1181 -445.333
vt -18425.4 1107.01
v -475.026 25.21 -445.333
vt -18701.8 992.52
v -481.055 20.5839 -445.333
vt -18939.2 810.389
v -485.681 14.555 -445.333
vt -19121.3 573.031
v -488.589 7.53422 -445.333
vt -19235.8 296.623
v -489.581 0 -445.333
vt -19274.8 0
v -488.589 -7.53422 -445.333
vt -19235.8 -296.623
v -485.681 -14.555 -445.333
vt -19121.3 -573.031
v -481.055 -20.5839 -445.333
vt -18939.2 -810.389
v -475.026 -25.21 -445.333
vt -18701.8 -992.52
v -468.005 -28.1181 -445.333
vt -18425.4 -1107.01
v -460.471 -29.11 -445.333
vt -18128.8 -1146.06
v -452.937 -28.1181 -445.333
vt -17832.1 -1107.01
v -445.916 -25.21 -445.333
vt -17555.7 -992.52
v -439.887 -20.5839 -445.333
vt -17318.4 -810.389
v -435.261 -14.555 -445.333
vt -17136.3 -573.031
v -432.353 -7.53422 -445.333
vt -17021.8 -296.623
v -431.361 3.56495e-15 -445.333
vt -16982.7 1.40352e-13
v -432.353 7.53422 -445.333
vt -17021.8 296.623
v -435.261 14.555 -445.333
vt -17136.3 573.031
f 98/213/36 99/214/36 100/215/36 101/216/36 102/217/36 103/218/36 104/219/36 105/220/36 106/221/36 107/222/36 108/223/36 109/224/36 110/225/36 111/226/36 112/227/36 113/228/36 114/229/36 115/230/36 116/231/36 117/232/36 118/233/36 119/234/36 120/235/36 121/236/36 

vt 17532.8 14532.1
vn 0.5 0.866025 -0
vt 17532.8 14232.9
vn 0.707107 0.707107 -0
v -439.887 20.5839 -555.343
vt 21863.9 14232.9
v -445.916 25.21 -555.343
vt 21863.9 14532.1
f 99/237/38 98/238/39 122/239/39 123/240/38 

vt 17532.8 11185.7
vt 17532.8 10886.5
vn 0.866025 0.5 -0
v -435.261 14.555 -555.343
vt 21863.9 10886.5
vt 21863.9 11185.7
f 98/241/39 121/242/40 124/243/40 122/244/39 

vt 17532.8 7087.17
vt 17532.8 6787.99
vn 0.965926 0.258819 -0
v -432.353 7.53422 -555.343
vt 21863.9 6787.99
vt 21863.9 7087.17
f 121/245/40 120/246/41 125/247/41 124/248/40 

vt 17532.8 2515.87
vt 17532.8 2216.69
vn 1 -1.1198e-16 -0
v -431.361 3.56495e-15 -555.343
vt 21863.9 2216.69
vt 21863.9 2515.87
f 120/249/41 119/250/42 126/251/42 125/252/41 

vt 17532.8 -2216.69
vt 17532.8 -2515.87
vn 0.965926 -0.258819 -0
v -432.353 -7.53422 -555.343
vt 21863.9 -2515.87
vt 21863.9 -2216.69
f 119/253/42 118/254/43 127/255/43 126/256/42 

vt 17532.8 -6787.99
vt 17532.8 -7087.17
vn 0.866025 -0.5 -0
v -435.261 -14.555 -555.343
vt 21863.9 -7087.17
vt 21863.9 -6787.99
f 118/257/43 117/258/44 128/259/44 127/260/43 

vt 17532.8 -10886.5
vt 17532.8 -11185.7
vn 0.707107 -0.707107 -0
v -439.887 -20.5839 -555.343
vt 21863.9 -11185.7
vt 21863.9 -10886.5
f 117/261/44 116/262/45 129/263/45 128/264/44 

vt 17532.8 -14232.9
vt 17532.8 -14532.1
vn 0.5 -0.866025 -0
v -445.916 -25.21 -555.343
vt 21863.9 -14532.1
vt 21863.9 -14232.9
f 116/265/45 115/266/46 130/267/46 129/268/45 

vt 17532.8 -16599.2
vt 17532.8 -16898.4
vn 0.258819 -0.965926 -0
v -452.937 -28.1181 -555.343
vt 21863.9 -16898.4
vt 21863.9 -16599.2
f 115/269/46 114/270/47 131/271/47 130/272/46 

vt 17532.8 -17824.1
vt 17532.8 -18123.3
vn 7.4187e-16 -1 -0
v -460.471 -29.11 -555.343
vt 21863.9 -18123.3
vt 21863.9 -17824.1
f 114/273/47 113/274/48 132/275/48 131/276/47 

vt -17532.8 17824.1
vt -17532.8 18123.3
vn -0.258819 -0.965926 -0
v -468.005 -28.1181 -555.343
vt -21863.9 18123.3
vt -21863.9 17824.1
f 113/277/48 112/278/49 133/279/49 132/280/48 

vt -17532.8 16599.2
vt -17532.8 16898.4
vn -0.5 -0.866025 -0
v -475.026 -25.21 -555.343
vt -21863.9 16898.4
vt -21863.9 16599.2
f 112/281/49 111/282/50 134/283/50 133/284/49 

vt -17532.8 14232.9
vt -17532.8 14532.1
vn -0.707107 -0.707107 -0
v -481.055 -20.5839 -555.343
vt -21863.9 14532.1
vt -21863.9 14232.9
f 111/285/50 110/286/51 135/287/51 134/288/50 

vt -17532.8 10886.5
vt -17532.8 11185.7
vn -0.866025 -0.5 -0
v -485.681 -14.555 -555.343
vt -21863.9 11185.7
vt -21863.9 10886.5
f 110/289/51 109/290/52 136/291/52 135/292/51 

vt -17532.8 6787.99
vt -17532.8 7087.17
vn -0.965926 -0.258819 -0
v -488.589 -7.53422 -555.343
vt -21863.9 7087.17
vt -21863.9 6787.99
f 109/293/52 108/294/53 137/295/53 136/296/52 

vt -17532.8 2216.69
vt -17532.8 2515.87
vn -1 2.09963e-16 -0
v -489.581 0 -555.343
vt -21863.9 2515.87
vt -21863.9 2216.69
f 108/297/53 107/298/54 138/299/54 137/300/53 

vt -17532.8 -2515.87
vt -17532.8 -2216.69
vn -0.965926 0.258819 -0
v -488.589 7.53422 -555.343
vt -21863.9 -2216.69
vt -21863.9 -2515.87
f 107/301/54 106/302/55 139/303/55 138/304/54 

vt -17532.8 -7087.17
vt -17532.8 -6787.99
vn -0.866025 0.5 -0
v -485.681 14.555 -555.343
vt -21863.9 -6787.99
vt -21863.9 -7087.17
f 106/305/55 105/306/56 140/307/56 139/308/55 

vt -17532.8 -11185.7
vt -17532.8 -10886.5
vn -0.707107 0.707107 -0
v -481.055 20.5839 -555.343
vt -21863.9 -10886.5
vt -21863.9 -11185.7
f 105/309/56 104/310/57 141/311/57 140/312/56 

vt -17532.8 -14532.1
vt -17532.8 -14232.9
vn -0.5 0.866025 -0
v -475.026 25.21 -555.343
vt -21863.9 -14232.9
vt -21863.9 -14532.1
f 104/313/57 103/314/58 142/315/58 141/316/57 

vt -17532.8 -16898.4
vt -17532.8 -16599.2
vn -0.258819 0.965926 -0
v -468.005 28.1181 -555.343
vt -21863.9 -16599.2
vt -21863.9 -16898.4
f 103/317/58 102/318/59 143/319/59 142/320/58 

vt -17532.8 -18123.3
vt -17532.8 -17824.1
vn 0 1 -0
v -460.471 29.11 -555.343
vt -21863.9 -17824.1
vt -21863.9 -18123.3
f 102/321/59 101/322/60 144/323/60 143/324/59 

vt 17532.8 18123.3
vt 17532.8 17824.1
vn 0.258819 0.965926 -0
v -452.937 28.1181 -555.343
vt 21863.9 17824.1
vt 21863.9 18123.3
f 101/325/60 100/326/61 145/327/61 144/328/60 

vt 17532.8 16898.4
vt 17532.8 16599.2
vt 21863.9 16599.2
vt 21863.9 16898.4
f 100/329/61 99/330/38 123/331/38 145/332/61 

vt 17555.7 992.52
vt 17318.4 810.389
vt 17136.3 573.031
vt 17021.8 296.623
vt 16982.7 1.40352e-13
vt 17021.8 -296.623
vt 17136.3 -573.031
vt 17318.4 -810.389
vt 17555.7 -992.52
vt 17832.1 -1107.01
vt 18128.8 -1146.06
vt 18425.4 -1107.01
vt 18701.8 -992.52
vt 18939.2 -810.389
vt 19121.3 -573.031
vt 19235.8 -296.623
vt 19274.8 0
vt 19235.8 296.623
vt 19121.3 573.031
vt 18939.2 810.389
vt 18701.8 992.52
vt 18425.4 1107.01
vt 18128.8 1146.06
vt 17832.1 1107.01
f 123/333/11 122/334/11 124/335/11 125/336/11 126/337/11 127/338/11 128/339/11 129/340/11 130/341/11 131/342/11 132/343/11 133/344/11 134/345/11 135/346/11 136/347/11 137/348/11 138/349/11 139/350/11 140/351/11 141/352/11 142/353/11 143/354/11 144/355/11 145/356/11 

