# Alias OBJ Model File
# Exported from SketchUp, (c) 2000-2012 Trimble Navigation Limited
# File units = meters

mtllib test9.mtl

g Mesh1 Model

usemtl _Brick_Rough_Dark_1
v 224.138 0 -85.9203
vt -2.46306 1.54502
vn 0 -1 -0
v 224.138 0 101.48
vt -2.46306 -1.82481
v 49.7584 0 101.48
vt -0.546795 -1.82481
v 49.7584 0 -77.1403
vt -0.546795 1.38714
v 49.7584 0 -85.9203
vt -0.546795 1.54502
v 136.948 0 -85.9203
vt -1.50493 1.54502
f 1/1/1 2/2/1 3/3/1 4/4/1 5/5/1 6/6/1 

usemtl Cladding_Stucco_White
vt -2.20608 0
vn 1 0 -0
vt 1.86783 0
v 224.138 7.29 -85.9203
vt 1.86783 0.105652
v 224.138 7.29 101.48
vt -2.20608 0.105652
f 2/7/2 1/8/2 7/9/2 8/10/2 

usemtl Brick_Rough_Dark
vt -2.46306 0
vn 0 0 -1
vt -1.50493 0
v 136.948 35.67 -85.9203
vt -1.50493 0.641419
v 148.837 35.67 -85.9203
vt -1.63557 0.641419
v 148.837 25.12 -85.9203
vt -1.63557 0.451708
v 180.372 25.12 -85.9203
vt -1.98211 0.451708
v 180.372 14.96 -85.9203
vt -1.98211 0.269011
v 205.685 14.96 -85.9203
vt -2.26028 0.269011
v 205.685 7.29 -85.9203
vt -2.26028 0.131089
vt -2.46306 0.131089
f 1/11/3 6/12/3 9/13/3 10/14/3 11/15/3 12/16/3 13/17/3 14/18/3 15/19/3 7/20/3 

v 49.7584 35.67 -85.9203
vt -0.546795 0.641419
vt -0.546795 0
f 16/21/3 9/13/3 6/12/3 5/22/3 

usemtl _Brick_Rough_Dark_1
v 136.948 179.87 -85.9203
vt -1.50493 3.23443
v 49.6184 0 -85.9203
vt -0.545257 0
v 49.6184 179.87 -85.9203
vt -0.545257 3.23443
f 17/23/3 9/13/3 16/21/3 5/22/3 18/24/3 19/25/3 

vt 0.944179 0.641419
vt 0.944179 3.23443
v 136.948 179.87 -77.1403
vt 0.847695 3.23443
v 136.948 35.67 -77.1403
vt 0.847695 0.641419
f 9/26/2 17/27/2 20/28/2 21/29/2 

usemtl Concrete_Block_Retaining_Gray
vt 224.653 281.891
vn 0 1 -0
vt 81.395 281.891
v 49.6184 179.87 -77.1403
vt 81.395 253.085
vt 224.653 253.085
f 17/30/4 19/31/4 22/32/4 20/33/4 

usemtl _Brick_Rough_Dark_1
vt -0.944179 3.23443
vn -1 0 -0
vt -0.944179 0
v 49.6184 0 -77.1403
vt -0.847695 0
vt -0.847695 3.23443
f 19/34/5 18/35/5 23/36/5 22/37/5 

usemtl Concrete_Block_Retaining_Gray
vt -81.395 281.891
vt -81.6246 281.891
vt -81.6246 253.085
vt -81.395 253.085
f 18/38/1 5/39/1 4/40/1 23/41/1 

vt -140.945 117.028
vt -140.945 0
vt -126.542 0
v 49.7584 35.67 -77.1403
vt -126.542 117.028
f 16/42/5 5/43/5 4/44/5 24/45/5 

usemtl _Brick_Rough_Dark_1
v 49.7584 35.67 101.48
vt 1.11516 0.641419
vt -0.847695 0.641419
vt 1.11516 0
f 25/46/5 24/47/5 4/36/5 3/48/5 

usemtl Cladding_Stucco_White
vt 1.0817 -1.47072
vn 1.43444e-17 1 -1.41177e-17
v 55.2375 35.67 101.48
vt 1.20081 -1.47072
v 55.2375 35.67 93.2297
vt 1.20081 -1.35116
v 139.477 35.67 93.2297
vt 3.03212 -1.35116
v 139.477 35.67 101.48
vt 3.03212 -1.47072
v 148.837 35.67 101.48
vt 3.23558 -1.47072
vt 3.23558 1.24522
vt 2.97714 1.24522
vt 2.97714 1.11798
vt 1.0817 1.11798
f 25/49/6 26/50/6 27/51/6 28/52/6 29/53/6 30/54/6 10/55/6 9/56/6 21/57/6 24/58/6 

usemtl _Brick_Rough_Dark_1
vt 0.546795 1.33368e-31
vn -3.47156e-32 -7.30859e-32 1
vt 2.46306 1.33368e-31
vt 2.46306 0.131089
v 205.685 7.29 101.48
vt 2.26028 0.131089
v 205.685 14.96 101.48
vt 2.26028 0.269011
v 180.372 14.96 101.48
vt 1.98211 0.269011
v 180.372 25.12 101.48
vt 1.98211 0.451708
v 148.837 25.12 101.48
vt 1.63557 0.451708
vt 1.63557 0.641419
vt 1.53272 0.641419
vt 0.607005 0.641419
vt 0.546795 0.641419
f 3/59/7 2/60/7 8/61/7 31/62/7 32/63/7 33/64/7 34/65/7 35/66/7 30/67/7 29/68/7 26/69/7 25/70/7 

usemtl Cladding_Stucco_White
vt 4.87257 1.24522
vt 4.47142 1.24522
vt 4.47142 -1.47072
vt 4.87257 -1.47072
f 7/71/4 15/72/4 31/73/4 8/74/4 

vt 1.86783 0.216812
vt -2.20608 0.216812
f 31/10/2 15/9/2 14/75/2 32/76/2 

vt 3.92114 1.24522
vt 3.92114 -1.47072
f 14/72/4 13/77/4 33/78/4 32/73/4 

vt 1.86783 0.364058
vt -2.20608 0.364058
f 33/76/2 13/75/2 12/79/2 34/80/2 

f 12/77/4 11/55/4 35/54/4 34/78/4 

vt 1.86783 0.516957
vt -2.20608 0.516957
f 35/80/2 11/79/2 10/81/2 30/82/2 

usemtl _Brick_Rough_Dark_1
vn 0 0 1
v 139.477 180.05 101.48
vt 1.53272 3.23766
v 55.2375 180.05 101.48
vt 0.607005 3.23766
f 29/68/8 36/83/8 37/84/8 26/69/8 

vt -1.11516 3.23766
vt -1.11516 0.641419
vt -1.0245 0.641419
v 139.477 180.05 93.2297
vt -1.0245 3.23766
v 139.477 180.05 100.96
vt -1.10945 3.23766
f 36/85/2 29/86/2 28/87/2 38/88/2 39/89/2 

usemtl Concrete_Block_Retaining_Gray
vt 90.6127 -332.939
vt 228.802 -332.939
vt 228.802 -305.872
vt 90.6127 -305.872
f 26/90/4 29/91/4 28/92/4 27/93/4 

usemtl _Brick_Rough_Dark_1
vt -1.53272 3.23766
vt -1.53272 0.641419
vt -0.607005 0.641419
v 55.2375 180.05 93.2297
vt -0.607005 3.23766
f 38/94/3 28/95/3 27/96/3 40/97/3 

vn -1 -1.60003e-16 1.88102e-31
vt 1.11516 3.23766
v 55.2375 180.05 100.96
vt 1.10945 3.23766
vt 1.0245 3.23766
vt 1.0245 0.641419
f 26/46/9 37/98/9 41/99/9 40/100/9 27/101/9 

usemtl Concrete_Block_Retaining_Gray
vt 228.802 -331.233
vt 90.6127 -331.233
f 37/90/4 36/91/4 39/102/4 41/103/4 

usemtl _Brick_Rough_Dark_1
v 139.477 187.575 100.96
vt 1.53272 3.37298
v 55.2375 187.575 100.96
vt 0.607005 3.37298
f 39/83/8 42/104/8 43/105/8 41/84/8 

v 139.477 187.575 -85.4803
vt 0.939344 3.37298
vt -1.10945 3.37298
v 139.477 180.05 -85.4803
vt 0.939344 3.23766
f 44/106/2 42/107/2 39/89/2 38/88/2 45/108/2 

v 55.2375 187.575 -85.4803
vt 0.607005 1.53711
vt 0.607005 -1.81546
vt 1.53272 -1.81546
vt 1.53272 1.53711
f 46/109/4 43/110/4 42/111/4 44/112/4 

v 55.2375 180.05 -85.4803
vt -0.939344 3.23766
vt 1.10945 3.37298
vt -0.939344 3.37298
f 47/113/5 40/100/5 41/99/5 43/114/5 46/115/5 

vt -1.53272 -1.67646
vt -0.607005 -1.67646
vt -0.607005 1.53711
vt -1.53272 1.53711
f 38/116/1 40/117/1 47/118/1 45/119/1 

usemtl Concrete_Block_Retaining_Gray
f 38/92/4 40/93/4 41/103/4 39/102/4 

usemtl _Brick_Rough_Dark_1
vt -1.53272 3.37298
vt -0.607005 3.37298
f 44/120/3 45/94/3 47/97/3 46/121/3 

usemtl Concrete_Block_Retaining_Gray
vn 6.6238e-17 1 -0
vt 81.6246 281.891
vt 81.6246 253.085
f 9/30/10 16/122/10 24/123/10 21/33/10 

usemtl _Brick_Rough_Dark_1
vt 1.50493 0.641419
vt 1.50493 3.23443
vt 0.545257 3.23443
vt 0.545257 0
vt 0.546795 0
f 21/124/8 20/125/8 22/126/8 23/127/8 4/128/8 24/70/8 

g Mesh2 Model

usemtl Brick_Tumbled
v 170.704 -9.24047e-14 -290.541
vt -1.87586 6.38551
v 170.704 -9.24047e-14 -119.351
vt -1.87586 2.62309
v 4.55363 -9.24047e-14 -119.351
vt -0.0500399 2.62309
v 4.55363 -9.24047e-14 -290.541
vt -0.0500399 6.38551
f 48/129/1 49/130/1 50/131/1 51/132/1 

vt 1.31155 -2.03087e-15
vt 3.19276 -2.03087e-15
v 170.704 100.61 -290.541
vt 3.19276 2.21121
v 170.704 100.61 -119.351
vt 1.31155 2.21121
f 49/133/2 48/134/2 52/135/2 53/136/2 

vt -1.87586 -2.03087e-15
vt -0.0500399 -2.03087e-15
v 4.55363 100.61 -290.541
vt -0.0500399 2.21121
vt -1.87586 2.21121
f 48/137/3 51/138/3 54/139/3 52/140/3 

vt -3.19276 -2.03087e-15
vt -1.31155 -2.03087e-15
v 4.55363 100.61 -119.351
vt -1.31155 2.21121
vt -3.19276 2.21121
f 51/141/5 50/142/5 55/143/5 54/144/5 

vt 0.0500399 -2.03087e-15
vt 1.87586 -2.03087e-15
vt 1.87586 2.21121
vt 0.0500399 2.21121
f 50/145/8 49/146/8 53/147/8 55/148/8 

v 71.895 100.61 -152.71
vt 0.790055 3.35626
vt 0.0500399 2.62309
vt 1.87586 2.62309
f 56/149/4 55/150/4 53/151/4

v 59.4959 100.61 -157.846
vt 0.653801 3.46914
f 57/152/4 55/150/4 56/149/4

v 48.8485 100.61 -166.016
vt 0.536797 3.6487
f 58/153/4 55/150/4 57/152/4

v 40.6785 100.61 -176.663
vt 0.447017 3.88271
f 59/154/4 55/150/4 58/153/4

v 35.5426 100.61 -189.062
vt 0.390578 4.15521
f 60/155/4 55/150/4 59/154/4

vt 0.0500399 6.38551
f 55/150/4 60/155/4 54/156/4

v 33.7909 100.61 -202.368
vt 0.371328 4.44765
f 54/156/4 60/155/4 61/157/4

vt -2.15633 2.21121
vn -1 1.09372e-31 3.07946e-16
vt -2.00885 2.21121
vn -0.965926 1.14355e-31 0.258819
v 35.5426 173.9 -189.062
vt -2.00885 3.82198
v 33.7909 173.9 -202.368
vt -2.15633 3.82198
f 61/158/11 60/159/12 62/160/12 63/161/11 

vt -1.76999 2.21121
vt -1.62251 2.21121
vn -0.866025 1.11545e-31 0.5
v 40.6785 173.9 -176.663
vt -1.62251 3.82198
vt -1.76999 3.82198
f 60/162/12 59/163/13 64/164/13 62/165/12 

vt -1.26805 2.21121
vt -1.12057 2.21121
vn -0.707107 1.01134e-31 0.707107
v 48.8485 173.9 -166.016
vt -1.12057 3.82198
vt -1.26805 3.82198
f 59/166/13 58/167/14 65/168/14 64/169/13 

vt -0.684724 2.21121
vt -0.537244 2.21121
vn -0.5 8.383e-32 0.866025
v 59.4959 173.9 -157.846
vt -0.537244 3.82198
vt -0.684724 3.82198
f 58/170/14 57/171/15 66/172/15 65/173/14 

vt -0.0597576 2.21121
vt 0.0877226 2.21121
vn -0.258819 6.08136e-32 0.965926
v 71.895 173.9 -152.71
vt 0.0877226 3.82198
vt -0.0597576 3.82198
f 57/174/15 56/175/16 67/176/16 66/177/15 

vt 0.564256 2.21121
v 85.2009 100.61 -150.958
vt 0.711736 2.21121
vn 6.71882e-16 3.36528e-32 1
v 85.2009 173.9 -150.958
vt 0.711736 3.82198
vt 0.564256 3.82198
f 56/178/16 68/179/17 69/180/17 67/181/16 

vt 0.936273 3.31776
f 56/149/4 53/151/4 68/182/4

v 98.5068 100.61 -152.71
vt 1.08249 3.35626
f 68/182/4 53/151/4 70/183/4

v 110.906 100.61 -157.846
vt 1.21875 3.46914
f 70/183/4 53/151/4 71/184/4

v 121.553 100.61 -166.016
vt 1.33575 3.6487
f 71/184/4 53/151/4 72/185/4

v 129.723 100.61 -176.663
vt 1.42553 3.88271
f 72/185/4 53/151/4 73/186/4

v 134.859 100.61 -189.062
vt 1.48197 4.15521
f 73/186/4 53/151/4 74/187/4

v 136.611 100.61 -202.368
vt 1.50122 4.44765
f 74/187/4 53/151/4 75/188/4

vt 1.87586 6.38551
f 52/189/4 75/188/4 53/151/4

v 134.859 100.61 -215.674
vt 1.48197 4.74009
f 52/189/4 76/190/4 75/188/4

v 129.723 100.61 -228.073
vt 1.42553 5.0126
f 52/189/4 77/191/4 76/190/4

v 121.553 100.61 -238.721
vt 1.33575 5.2466
f 52/189/4 78/192/4 77/191/4

v 110.906 100.61 -246.891
vt 1.21875 5.42617
f 52/189/4 79/193/4 78/192/4

v 98.5068 100.61 -252.026
vt 1.08249 5.53904
f 52/189/4 80/194/4 79/193/4

v 85.2009 100.61 -253.778
vt 0.936273 5.57754
f 52/189/4 81/195/4 80/194/4

v 71.895 100.61 -252.026
vt 0.790055 5.53904
f 52/189/4 82/196/4 81/195/4

f 54/156/4 82/196/4 52/189/4

v 59.4959 100.61 -246.891
vt 0.653801 5.42617
f 82/196/4 54/156/4 83/197/4

v 48.8485 100.61 -238.721
vt 0.536797 5.2466
f 83/197/4 54/156/4 84/198/4

v 40.6785 100.61 -228.073
vt 0.447017 5.0126
f 84/198/4 54/156/4 85/199/4

v 35.5426 100.61 -215.674
vt 0.390578 4.74009
f 85/199/4 54/156/4 86/200/4

f 86/200/4 54/156/4 61/157/4

vt -2.40075 2.21121
vn -0.965926 9.69349e-32 -0.258819
vt -2.25327 2.21121
vt -2.25327 3.82198
v 35.5426 173.9 -215.674
vt -2.40075 3.82198
f 86/201/18 61/202/11 63/203/11 87/204/18 

v 85.2009 173.9 -253.778
vn -1.19944e-17 1 9.24345e-17
v 71.895 173.9 -252.026
v 88.5096 173.9 -252.026
vt 0.972633 5.53904
v 88.5096 173.9 -208.134
vt 0.972633 4.57437
v 90.2896 173.9 -205.051
vt 0.992193 4.50661
v 88.5096 173.9 -201.968
vt 0.972633 4.43885
v 84.9496 173.9 -201.968
vt 0.933512 4.43885
v 71.895 173.9 -201.968
vt 0.790055 4.43885
v 71.895 173.9 -252.026
v 59.4959 173.9 -246.891
v 48.8485 173.9 -238.721
v 40.6785 173.9 -228.073
v 98.5068 173.9 -152.71
v 110.906 173.9 -157.846
v 121.553 173.9 -166.016
v 129.723 173.9 -176.663
v 134.859 173.9 -189.062
v 136.611 173.9 -202.368
v 134.859 173.9 -215.674
v 129.723 173.9 -228.073
v 121.553 173.9 -238.721
v 110.906 173.9 -246.891
v 98.5068 173.9 -252.026
f 88/195/19 89/196/19 90/205/19 91/206/19 92/207/19 93/208/19 94/209/19 95/210/19 96/196/19 97/197/19 98/198/19 99/199/19 87/200/19 63/157/19 62/155/19 64/154/19 65/153/19 66/152/19 67/149/19 69/182/19 100/183/19 101/184/19 102/185/19 103/186/19 104/187/19 105/188/19 106/190/19 107/191/19 108/192/19 109/193/19 110/194/19 

vt -1.29227 2.21121
vn 1.1198e-16 -2.40259e-32 -1
vt -1.14479 2.21121
vn -0.258819 0 -0.965926
vt -1.14479 3.82198
vt -1.29227 3.82198
f 81/211/20 82/212/21 89/213/21 88/214/20 

vt -1.78977 2.21121
vt -1.64229 2.21121
vn -0.5 2.01134e-32 -0.866025
vt -1.64229 3.82198
vt -1.78977 3.82198
f 82/215/21 83/216/22 97/217/22 89/218/21 

vt -2.17032 2.21121
vt -2.02283 2.21121
vn -0.707107 5.35413e-32 -0.707107
vt -2.02283 3.82198
vt -2.17032 3.82198
f 83/219/22 84/220/23 98/221/23 97/222/22 

vt -2.40799 2.21121
vt -2.26051 2.21121
vn -0.866025 7.78922e-32 -0.5
vt -2.26051 3.82198
vt -2.40799 3.82198
f 84/223/23 85/224/24 99/225/24 98/226/23 

vt -2.48658 2.21121
vt -2.3391 2.21121
vt -2.3391 3.82198
vt -2.48658 3.82198
f 85/227/24 86/228/18 87/229/18 99/230/24 

vt -0.711736 2.21121
vn 0.258819 -6.08136e-32 -0.965926
vt -0.564256 2.21121
vt -0.564256 3.82198
vt -0.711736 3.82198
f 80/231/25 81/232/20 88/233/20 110/234/25 

vt -0.0877226 2.21121
vn 0.5 -5.59817e-32 -0.866025
vt 0.0597576 2.21121
vt 0.0597576 3.82198
vt -0.0877226 3.82198
f 79/235/26 80/236/25 110/237/25 109/238/26 

vt 0.537244 2.21121
vn 0.707107 -1.76022e-18 -0.707107
vt 0.684724 2.21121
vt 0.684724 3.82198
vt 0.537244 3.82198
f 78/239/27 79/240/26 109/241/26 108/242/27 

vt 1.12057 2.21121
vn 0.866025 -1.76022e-18 -0.5
vt 1.26805 2.21121
vt 1.26805 3.82198
vt 1.12057 3.82198
f 77/243/28 78/244/27 108/245/27 107/246/28 

vt 1.62251 2.21121
vn 0.965926 -1.14355e-31 -0.258819
vt 1.76999 2.21121
vt 1.76999 3.82198
vt 1.62251 3.82198
f 76/247/29 77/248/28 107/249/28 106/250/29 

vt 2.00885 2.21121
vn 1 -1.09372e-31 -6.29889e-16
vt 2.15633 2.21121
vt 2.15633 3.82198
vt 2.00885 3.82198
f 75/251/30 76/252/29 106/253/29 105/254/30 

vt 2.25327 2.21121
vn 0.965926 -9.69349e-32 0.258819
vt 2.40075 2.21121
vt 2.40075 3.82198
vt 2.25327 3.82198
f 74/255/31 75/256/30 105/257/30 104/258/31 

vt 2.3391 2.21121
vn 0.866025 -7.78922e-32 0.5
vt 2.48658 2.21121
vt 2.48658 3.82198
vt 2.3391 3.82198
f 73/259/32 74/260/31 104/261/31 103/262/32 

vt 2.26051 2.21121
vn 0.707107 -5.35413e-32 0.707107
vt 2.40799 2.21121
vt 2.40799 3.82198
vt 2.26051 3.82198
f 72/263/33 73/264/32 103/265/32 102/266/33 

vt 2.02283 2.21121
vn 0.5 -2.55416e-32 0.866025
vt 2.17032 2.21121
vt 2.17032 3.82198
vt 2.02283 3.82198
f 71/267/34 72/268/33 102/269/33 101/270/34 

vt 1.64229 2.21121
vn 0.258819 4.19866e-33 0.965926
vt 1.78977 2.21121
vt 1.78977 3.82198
vt 1.64229 3.82198
f 70/271/35 71/272/34 101/273/34 100/274/35 

vt 1.14479 2.21121
vt 1.29227 2.21121
vt 1.29227 3.82198
vt 1.14479 3.82198
f 68/275/17 70/276/35 100/277/35 69/278/17 

v 71.895 228.04 -252.026
vt -0.790055 5.01187
vn -5.14089e-31 9.24345e-17 -1
v 88.5096 228.04 -252.026
vt -0.972633 5.01187
vt -0.972633 3.82198
vt -0.790055 3.82198
f 111/279/36 112/280/36 90/281/36 89/282/36 

v 84.9496 228.04 -208.134
vt 0.933512 4.57437
vn -2.69959e-15 1 -8.73634e-16
v 88.5096 228.04 -208.134
v 71.895 228.04 -201.968
v 84.9496 228.04 -201.968
v 83.1696 228.04 -205.051
vt 0.913951 4.50661
f 113/283/37 114/206/37 112/205/37 111/196/37 115/210/37 116/209/37 117/284/37 

v 84.9496 193 -208.134
vt 0.933512 4.24176
v 88.5096 193 -208.134
vt 0.972633 4.24176
vt 0.972633 5.01187
vt 0.933512 5.01187
f 118/285/8 119/286/8 114/287/8 113/288/8 

usemtl FrontColor
v 83.1696 193 -205.051
vt -3274.39 8072.86
vt -3344.47 8194.24
vt -3484.63 8194.24
v 90.2896 193 -205.051
vt -3554.71 8072.86
v 88.5096 193 -201.968
vt -3484.63 7951.48
v 84.9496 193 -201.968
vt -3344.47 7951.48
f 120/289/1 118/290/1 119/291/1 121/292/1 122/293/1 123/294/1 

usemtl Brick_Tumbled
vt 2.40839 4.24176
vn 0.866025 0 0.5
vt 2.44752 4.24176
vt 2.44752 5.01187
vt 2.40839 5.01187
f 120/295/38 118/296/38 113/297/38 117/298/38 

usemtl FrontColor
v 88.5096 228.04 -201.968
vt 3484.63 7951.48
vt 3484.63 8194.24
vt 3344.47 8194.24
vt 3274.39 8072.86
vt 3344.47 7951.48
f 124/299/4 114/300/4 113/301/4 117/302/4 116/303/4 

v 90.2896 228.04 -205.051
vt 3554.71 8072.86
f 114/300/4 124/299/4 125/304/4

usemtl Brick_Tumbled
f 122/295/38 121/296/38 125/297/38 124/298/38 

vt 2.44752 3.82198
vn 0.866025 -1.34797e-18 0.5
vt 2.40839 3.82198
f 92/305/39 121/296/39 122/295/39 93/306/39 

vt 1.49444 3.82198
vn 0.866025 1.51647e-18 -0.5
vt 1.49444 4.24176
vt 1.45532 4.24176
vt 1.45532 3.82198
f 91/307/40 119/308/40 121/309/40 92/310/40 

vt 2.76952 5.01187
vt 2.28718 5.01187
vt 2.28718 4.24176
vt 2.28718 3.82198
vt 2.76952 3.82198
f 112/311/2 114/312/2 119/313/2 91/314/2 90/315/2 

vn 0.866025 0 -0.5
vt 1.49444 5.01187
vt 1.45532 5.01187
f 121/309/41 119/308/41 114/316/41 125/317/41 

vt 0.972633 3.82198
vt 0.933512 3.82198
f 93/318/8 122/286/8 123/285/8 94/319/8 

f 123/285/8 122/286/8 124/287/8 116/288/8 

f 123/309/41 120/308/41 117/316/41 116/317/41 

vt 0.790055 5.01187
vt 0.790055 3.82198
f 116/288/8 115/320/8 95/321/8 94/319/8 123/285/8 

vt -2.21942 5.01187
vn -1 -1.19944e-17 2.21408e-32
vt -2.76952 5.01187
vt -2.76952 3.82198
vt -2.21942 3.82198
f 115/322/42 111/323/42 89/324/42 95/325/42 

g Mesh3 Model

v -3.00706 0 -483.726
vt 0.0330447 10.6313
v 169.403 0 -483.726
vt -1.86157 10.6313
v 169.403 0 -344.486
vt -1.86157 7.57111
v -3.00706 0 -344.486
vt 0.0330447 7.57111
f 126/326/1 127/327/1 128/328/1 129/329/1 

vt -1.86157 0
vt 0.0330447 0
v -3.00706 108.18 -483.726
vt 0.0330447 2.37758
v 169.403 108.18 -483.726
vt -1.86157 2.37758
f 127/330/3 126/331/3 130/332/3 131/333/3 

vt -5.31567 0
vt -3.78556 0
v -3.00706 108.18 -344.486
vt -3.78556 2.37758
vt -5.31567 2.37758
f 126/334/5 129/335/5 132/336/5 130/337/5 

vt -0.0330447 0
vt 1.86157 0
v 169.403 108.18 -344.486
vt 1.86157 2.37758
vt -0.0330447 2.37758
f 129/338/8 128/339/8 133/340/8 132/341/8 

vt 3.78556 0
vt 5.31567 0
vt 5.31567 2.37758
vt 3.78556 2.37758
f 128/342/2 127/343/2 131/344/2 133/345/2 

vt 1.86157 10.6313
vt -0.0330447 10.6313
vt -0.0330447 7.57111
vt 1.86157 7.57111
f 131/346/4 130/347/4 132/348/4 133/349/4 

