# Alias OBJ Model File
# Exported from SketchUp, (c) 2000-2012 Trimble Navigation Limited
# File units = meters

mtllib test4.mtl

g Mesh1 Model

usemtl Formica_Laminate_Dark
v 224.138 0 -85.9203
vt -147.072 56.3781
vn 0 -1 -0
v 224.138 0 101.48
vt -147.072 -66.5877
v 49.7584 0 101.48
vt -32.6498 -66.5877
v 49.7584 0 -85.9203
vt -32.6498 56.3781
f 1/1/1 2/2/1 3/3/1 4/4/1 

usemtl Quartz_Light_Brown
vt -166.535 0
vn 1 0 -0
vt 141.001 0
v 224.138 7.29 -85.9203
vt 141.001 10.8561
v 224.138 7.29 101.48
vt -166.535 10.8561
f 2/5/2 1/6/2 5/7/2 6/8/2 

usemtl Formica_Laminate_Dark
vt -147.072 0
vn 0 0 -1
vt -32.6498 0
v 49.7584 35.67 -85.9203
vt -32.6498 23.4055
v 148.837 35.67 -85.9203
vt -97.6618 23.4055
v 148.837 25.12 -85.9203
vt -97.6618 16.4829
v 180.372 25.12 -85.9203
vt -118.355 16.4829
v 180.372 14.96 -85.9203
vt -118.355 9.81627
v 205.685 14.96 -85.9203
vt -134.964 9.81627
v 205.685 7.29 -85.9203
vt -134.964 4.78346
vt -147.072 4.78346
f 1/9/3 4/10/3 7/11/3 8/12/3 9/13/3 10/14/3 11/15/3 12/16/3 13/17/3 5/18/3 

vt -56.3781 0
vn -1 0 -0
vt 66.5877 0
v 49.7584 35.67 101.48
vt 66.5877 23.4055
vt -56.3781 23.4055
f 4/19/4 3/20/4 14/21/4 7/22/4 

vt 32.6498 1.16328e-29
vn 1.60429e-32 -1.74699e-31 1
vt 147.072 1.16328e-29
vt 147.072 4.78346
v 205.685 7.29 101.48
vt 134.964 4.78346
v 205.685 14.96 101.48
vt 134.964 9.81627
v 180.372 14.96 101.48
vt 118.355 9.81627
v 180.372 25.12 101.48
vt 118.355 16.4829
v 148.837 25.12 101.48
vt 97.6618 16.4829
v 148.837 35.67 101.48
vt 97.6618 23.4055
vt 32.6498 23.4055
f 3/23/5 2/24/5 6/25/5 15/26/5 16/27/5 17/28/5 18/29/5 19/30/5 20/31/5 14/32/5 

vt 147.072 56.3781
vn 0 1 -0
vt 134.964 56.3781
vt 134.964 -66.5877
vt 147.072 -66.5877
f 5/33/6 13/34/6 15/35/6 6/36/6 

usemtl Quartz_Light_Brown
vt 141.001 22.2781
vt -166.535 22.2781
f 15/8/2 13/7/2 12/37/2 16/38/2 

usemtl Formica_Laminate_Dark
vt 118.355 56.3781
vt 118.355 -66.5877
f 12/34/6 11/39/6 17/40/6 16/35/6 

usemtl Quartz_Light_Brown
vt 141.001 37.4081
vt -166.535 37.4081
f 17/38/2 11/37/2 10/41/2 18/42/2 

usemtl Formica_Laminate_Dark
vt 97.6618 56.3781
vt 97.6618 -66.5877
f 10/39/6 9/43/6 19/44/6 18/40/6 

usemtl Quartz_Light_Brown
vt 141.001 53.1189
vt -166.535 53.1189
f 19/42/2 9/41/2 8/45/2 20/46/2 

usemtl Formica_Laminate_Dark
vt 32.6498 -66.5877
vt 32.6498 56.3781
f 14/47/6 20/44/6 8/43/6 7/48/6 

