# Alias OBJ Model File
# Exported from SketchUp, (c) 2000-2012 Trimble Navigation Limited
# File units = meters

mtllib 10.mtl

g Mesh1 Model

usemtl Rough_Square_Concrete_Block
v 3.23406 0 47.24
vt -0.519121 0
vn 1 0 -0
v 3.23406 2.88 63.0427
vt -0.692777 0.0316484
v 3.23406 0 63.0427
vt -0.692777 0
f 1/1/1 2/2/1 3/3/1

v 3.23406 2.88 59.6127
vt -0.655084 0.0316484
f 2/2/1 1/1/1 4/4/1

v 3.23406 6.39 59.6127
vt -0.655084 0.0702198
f 4/4/1 1/1/1 5/5/1

v 3.23406 6.39 47.24
vt -0.519121 0.0702198
f 5/5/1 1/1/1 6/6/1

v 3.23406 0 31.6887
vt -0.348227 0
f 7/7/1 6/6/1 1/1/1

v 3.23406 9.91 47.24
vt -0.519121 0.108901
f 6/6/1 7/7/1 8/8/1

v 3.23406 9.91 31.6887
vt -0.348227 0.108901
f 8/8/1 7/7/1 9/9/1

v 105.084 9.91 31.5165
vt -1.15477 -0.346335
vn 0 -1 -0
vt -0.0355391 -0.519121
vt -0.0355391 -0.348227
f 10/10/2 8/11/2 9/12/2

v 105.084 9.91 47.1996
vt -1.15477 -0.518677
f 8/11/2 10/10/2 11/13/2

v 105.084 0 31.4513
vt 0.345619 0
vn -1 0 -0
vt 0.518677 0.108901
vt 0.346335 0.108901
f 12/14/3 11/15/3 10/16/3

v 105.084 0 47.2196
vt 0.518897 0
f 13/17/3 11/15/3 12/14/3

v 105.084 6.39 47.4196
vt 0.521095 0.0702198
f 11/15/3 13/17/3 14/18/3

v 105.084 2.88 59.6127
vt 0.655084 0.0316484
f 13/17/3 15/19/3 14/18/3

v 105.084 0 63.0427
vt 0.692777 0
f 16/20/3 15/19/3 13/17/3

v 105.084 2.88 63.0427
vt 0.692777 0.0316484
f 15/19/3 16/20/3 17/21/3

v 105.084 0 75.7913
vt 0.832871 0
f 18/22/3 17/21/3 16/20/3

v 105.084 2.88 75.7913
vt 0.832871 0.0316484
f 17/21/3 18/22/3 19/23/3

vt -1.15477 0
vn 0 0 -1
v 3.23406 2.88 75.7913
vt -0.0355391 0.0316484
vt -1.15477 0.0316484
f 18/24/4 20/25/4 19/26/4

v 3.23406 0 75.7913
vt -0.0355391 0
f 20/25/4 18/24/4 21/27/4

vt -0.832871 0.0316484
vt -0.832871 0
f 3/3/1 20/28/1 21/29/1

f 20/28/1 3/3/1 2/2/1

vt -0.0355391 -0.692777
vt -1.15477 -0.655084
vt -0.0355391 -0.832871
f 2/30/2 15/31/2 20/32/2

vt -0.0355391 -0.655084
f 15/31/2 2/30/2 4/33/2

vt -0.0355391 0.0702198
f 5/34/4 15/26/4 4/25/4

v 105.084 6.39 59.6127
vt -1.15477 0.0702198
f 15/26/4 5/34/4 22/35/4

vt -1.15477 -0.521095
f 5/33/2 14/36/2 22/31/2

f 14/36/2 5/33/2 6/11/2

vt -1.15568 0.076462
vn 0.00176027 -0.0623782 -0.998051
vt -1.15569 0.0377052
vt -0.0364546 0.0377052
f 11/37/5 14/38/5 6/39/5

vt -1.15456 0.108901
vn -0.000396333 -1.15813e-18 -1
vt -0.0353334 0.0702198
vt -0.0353334 0.108901
f 11/40/6 6/41/6 8/42/6

vt 0.655084 0.0702198
f 14/18/3 15/19/3 22/43/3

vt -1.15477 -0.832871
f 20/32/2 15/31/2 19/44/2

vt -1.15477 -0.692777
f 19/44/2 15/31/2 17/45/2

v 105.084 -0.00670464 31.3575
vt 0.344588 -7.36774e-05
f 13/17/3 12/14/3 23/46/3

v 105.084 -7.04992e-19 31.3576
vt 0.344589 -7.74716e-21
f 23/46/3 12/14/3 24/47/3

vt -1.15477 -0.345619
vn -2.89132e-20 -1 -3.98434e-21
v 105.084 0 -18.9687
vt -1.15477 0.208447
vt -1.15477 -0.344589
f 12/48/7 25/49/7 24/50/7

v 98.1101 0 31.4513
vt -1.07813 -0.345619
f 26/51/7 25/49/7 12/48/7

v 98.1101 0 -18.9687
vt -1.07813 0.208447
f 25/49/7 26/51/7 27/52/7

vt 0.345619 -1.07813
vn -0.0023691 -0.999997 -0
v 98.1101 0 -44.4687
vt -0.488667 -1.07813
vt -0.208447 -1.07813
f 26/53/8 28/54/8 27/55/8

v 3.73411 0.223587 31.4513
vt 0.345619 -0.0410282
f 29/56/8 28/54/8 26/53/8

v 3.73411 0.223587 29.0813
vt 0.319575 -0.0410282
f 30/57/8 28/54/8 29/56/8

v 3.73411 0.223587 -18.9687
vt -0.208447 -0.0410282
f 31/58/8 28/54/8 30/57/8

v 3.73411 0.223587 -44.4687
vt -0.488667 -0.0410282
f 28/54/8 31/58/8 32/59/8

vt -0.208447 0.000548353
vn -0.998921 -0.046449 2.6041e-19
v 3.00145 15.98 -44.4687
vt -0.488667 0.173883
vt -0.488667 0.000548353
f 31/60/9 33/61/9 32/62/9

v 3.00145 15.98 -18.9687
vt -0.208447 0.173883
f 31/60/9 34/63/9 33/61/9

vt 0.319575 0.000548353
f 30/64/9 34/63/9 31/60/9

vt 0.345619 0.000548353
f 29/65/9 34/63/9 30/64/9

v 3.00145 15.98 31.4513
vt 0.345619 0.173883
f 34/63/9 29/65/9 35/66/9

vt 0.0410341 0.002457
vn 0 0 1
v 105.18 15.98 31.4513
vt 1.15583 0.175604
vt 0.0329829 0.175604
f 29/67/10 36/68/10 35/69/10

vt 1.07813 0
f 26/70/10 36/68/10 29/67/10

vt 1.15477 0
f 12/71/10 36/68/10 26/70/10

v 105.18 0 31.4513
vt 1.15583 0
f 36/68/10 12/71/10 37/72/10

vn 2.09995e-18 -1 -3.98434e-21
v 105.18 0 -18.9687
vt -1.15583 0.208447
vt -1.15583 -0.345619
f 12/48/11 38/73/11 37/74/11

f 24/50/11 38/73/11 12/48/11

f 38/73/11 24/50/11 25/49/11

v 105.18 0 -44.4687
vt -1.15583 0.488667
f 25/49/2 39/75/2 38/73/2

f 27/52/2 39/75/2 25/49/2

vt -1.07813 0.488667
f 39/75/2 27/52/2 28/76/2

vt -0.0410341 0.002457
vt -1.15583 0
vt -1.07813 0
f 32/77/4 39/78/4 28/79/4

v 105.18 15.98 -44.4687
vt -1.15583 0.175604
f 39/78/4 32/77/4 40/80/4

vt -0.0329829 0.175604
f 40/80/4 32/77/4 33/81/4

vt 0.0329829 0.488667
vn 0 1 -0
v 105.18 15.98 -18.9687
vt 1.15583 0.208447
vt 1.15583 0.488667
f 33/82/12 41/83/12 40/84/12

vt 0.0329829 0.208447
f 41/83/12 33/82/12 34/85/12

v 3.30173 15.98 31.4513
vt 0.0362827 -0.345619
f 42/86/12 41/83/12 34/85/12

vt 1.15583 -0.345619
f 41/83/12 42/86/12 36/87/12

v 3.30317 15.98 31.6933
vt 0.0362986 -0.348278
f 36/87/12 42/86/12 43/88/12

vt 0.0362827 0.175604
f 35/69/10 36/68/10 42/89/10

vt 0.0329829 -0.345619
f 42/86/12 34/85/12 35/90/12

vt -1.155 0.171866
vn -0.00237481 -0.0107025 -0.99994
vt -1.15394 0.105159
vt -0.0354713 0.171866
f 36/91/13 10/92/13 43/93/13

vt -0.0357098 0.175875
vn -0.00169033 0.000776458 -0.999998
vt -1.15418 0.109171
vt -0.0349504 0.109171
f 43/94/14 10/95/14 9/96/14

vt -0.345619 0.175604
vt 0.208447 0
vt 0.208447 0.175604
f 36/97/1 38/98/1 41/99/1

vt -0.345619 0
f 38/98/1 36/97/1 37/100/1

vt 0.488667 0
f 41/99/1 38/98/1 39/101/1

vt 0.488667 0.175604
f 41/99/1 39/101/1 40/102/1

f 24/47/3 12/14/3 10/16/3

