# Alias OBJ Model File
# Exported from SketchUp, (c) 2000-2012 Trimble Navigation Limited
# File units = meters

mtllib demo1.mtl

g Mesh1 Model

usemtl Stone_Masonry_Multi
v 15.5473 54.76 -0
vt -0.818277 0
vn 0 -1 -0
v 0 54.76 15.48
vt 0 -1.19664
v 0 54.76 -0
vt 0 0
f 1/1/1 2/2/1 3/3/1

v 15.5473 54.76 15.48
vt -0.818277 -1.19664
f 2/2/1 1/1/1 4/4/1

vt 0 4.23309
vn -1 0 -0
v 15.5473 3.73 15.48
vt 0.814737 0.288339
vt 0.814737 4.23309
f 1/5/2 5/6/2 4/7/2

v 15.5473 3.73 -0
vt 0 0.288339
f 5/6/2 1/5/2 6/8/2

vt 0.818277 4.23309
vn 0 0 1
v 0 3.73 -0
vt 0.818277 0.288339
f 1/9/3 7/8/3 6/10/3

f 7/8/3 1/9/3 3/5/3

v 15.5473 54.76 -1.66
vt -0.818277 0.128322
f 3/3/1 8/11/1 1/1/1

v -2.89 54.76 -0
vt 0.152105 0
f 9/12/1 8/11/1 3/3/1

v -2.89 54.76 -1.66
vt 0.152105 0.128322
f 8/11/1 9/12/1 10/13/1

v -2.89 56.71 -1.66
vt -0.0873684 4.38383
vt -0.0873684 4.23309
f 9/5/2 11/14/2 10/15/2

v -2.89 54.76 15.48
f 12/7/2 11/14/2 9/5/2

v -2.89 54.41 51.54
vt 2.71263 4.20604
f 13/16/2 11/14/2 12/7/2

v -2.89 54.41 64.1
vt 3.37368 4.20604
f 14/17/2 11/14/2 13/16/2

v -2.89 56.71 64.23
vt 3.38053 4.38383
f 11/14/2 14/17/2 15/18/2

vt -0.152105 4.47896
vn 9.68709e-20 -0.0564317 0.998406
v 145.23 56.71 64.23
vt 7.64368 4.65704
vt -0.152105 4.65704
f 14/19/4 16/20/4 15/21/4

v 0 54.41 64.1
vt -3.27333e-19 4.47896
f 17/22/4 16/20/4 14/19/4

v 15.5473 54.41 64.1
vt 0.818277 4.47896
f 18/23/4 16/20/4 17/22/4

v 21.7673 54.41 64.1
vt 1.14565 4.47896
f 19/24/4 16/20/4 18/23/4

v 30.8803 54.41 64.1
vt 1.62528 4.47896
f 20/25/4 16/20/4 19/24/4

v 145.23 54.41 64.1
vt 7.64368 4.47896
f 16/20/4 20/25/4 21/26/4

vt -1.62528 -4.9551
v 145.23 54.41 51.54
vt -7.64368 -3.98418
vt -7.64368 -4.9551
f 20/27/1 22/28/1 21/29/1

vt -1.14565 -4.9551
f 19/30/1 22/28/1 20/27/1

vt -0.818277 -4.9551
f 18/31/1 22/28/1 19/30/1

v 15.5473 54.41 51.54
vt -0.818277 -3.98418
f 22/28/1 18/31/1 23/32/1

vt 0 -4.9551
f 17/33/1 23/32/1 18/31/1

v 0 54.41 51.54
vt 0 -3.98418
f 23/32/1 17/33/1 24/34/1

vt -3.37368 4.20604
vn 1 0 -0
v 0 3.73 51.54
vt -2.71263 0.288339
vt -2.71263 4.20604
f 17/35/5 25/36/5 24/37/5

v 0 3.73 64.1
vt -3.37368 0.288339
f 25/36/5 17/35/5 26/38/5

vt 0 4.20604
vn 0 0 -1
v 15.5473 3.73 64.1
vt -0.818277 0.288339
f 17/39/6 27/40/6 26/8/6

vt -0.818277 4.20604
f 27/40/6 17/39/6 18/41/6

vt 3.37368 0.288339
f 23/16/2 27/42/2 18/17/2

v 15.5473 3.73 51.54
vt 2.71263 0.288339
f 27/42/2 23/16/2 28/43/2

vt 0.818277 4.20604
f 23/44/3 25/8/3 28/10/3

f 25/8/3 23/44/3 24/39/3

vt 8.42871e-16 -3.94317
vn -3.01573e-18 -0.999953 -0.00970559
vt -0.818277 -1.1555
vt -0.818277 -3.94317
f 24/45/7 4/46/7 23/47/7

vt 2.53156e-16 -1.1555
f 4/46/7 24/45/7 2/48/7

v 0 3.73 15.48
vt -0.814737 0.288339
vt -0.814737 4.23309
f 24/37/5 29/49/5 2/50/5

f 29/49/5 24/37/5 25/36/5

v 0 0 15.48
vt -0.814737 0
f 25/36/5 30/51/5 29/49/5

v 0 0 51.54
vt -2.71263 0
f 30/51/5 25/36/5 31/52/5

f 26/38/5 31/52/5 25/36/5

v 0 0 64.1
vt -3.37368 0
f 31/52/5 26/38/5 32/53/5

v 15.5473 0 64.1
f 26/8/6 33/1/6 32/3/6

f 33/1/6 26/8/6 27/40/6

f 26/33/1 28/32/1 27/31/1

f 28/32/1 26/33/1 25/34/1

f 25/34/1 5/4/1 28/32/1

f 5/4/1 25/34/1 29/2/1

vt 4.53972e-16 4.23309
vn -5.572e-16 0 -1
vt 4.53972e-16 0.288339
f 2/54/8 5/40/8 29/55/8

vt -0.818277 4.23309
f 5/40/8 2/54/8 4/56/8

f 29/2/1 6/1/1 5/4/1

f 6/1/1 29/2/1 7/3/1

v 0 0 -0
f 29/49/5 34/3/5 7/8/5

f 34/3/5 29/49/5 30/51/5

f 34/3/3 6/10/3 7/8/3

v 15.5473 0 -0
vt 0.818277 0
f 6/10/3 34/3/3 35/57/3

v 128.024 3.73 -0
vt 6.73812 0.288339
f 35/57/3 36/58/3 6/10/3

v 128.024 0 -0
vt 6.73812 0
f 36/58/3 35/57/3 37/59/3

v 142.85 3.73 -0
vt 7.51842 0.288339
f 37/59/3 38/60/3 36/58/3

v 142.85 0 -0
vt 7.51842 0
f 38/60/3 37/59/3 39/61/3

v 142.85 0 15.48
vt 0.814737 0
f 40/62/2 38/8/2 39/3/2

v 142.85 3.73 15.48
f 38/8/2 40/62/2 41/6/2

v 142.85 0 51.54
vt 2.71263 0
f 42/63/2 41/6/2 40/62/2

v 142.85 3.73 51.54
f 41/6/2 42/63/2 43/43/2

v 142.85 0 64.1
vt 3.37368 0
f 44/64/2 43/43/2 42/63/2

v 142.85 3.73 64.1
f 43/43/2 44/64/2 45/42/2

vt -7.51842 0
v 128.024 3.73 64.1
vt -6.73812 0.288339
vt -7.51842 0.288339
f 44/65/6 46/66/6 45/67/6

v 128.024 0 64.1
vt -6.73812 0
f 46/66/6 44/65/6 47/68/6

v 128.024 0 72.16
vt 3.79789 0
f 48/69/2 46/42/2 47/64/2

v 128.024 3.65 72.16
vt 3.79789 0.282155
f 46/42/2 48/69/2 49/70/2

v 128.024 0 92.0686
vt 4.84571 0
f 50/71/2 49/70/2 48/69/2

v 128.024 3.65 92.0686
vt 4.84571 0.282155
f 49/70/2 50/71/2 51/72/2

v 128.024 0 97.5
vt 5.13158 0
f 52/73/2 51/72/2 50/71/2

v 128.024 3.72 97.5
vt 5.13158 0.287566
f 51/72/2 52/73/2 53/74/2

v 121.624 3.65 97.5
vt -6.40128 0.282155
vt -6.73812 0.287566
f 52/68/6 54/75/6 53/76/6

v 121.624 0 97.5
vt -6.40128 0
f 54/75/6 52/68/6 55/77/6

vn 5.66483e-16 0 -1
v 101.234 3.65 97.5
vt -5.32812 0.282155
f 55/77/9 56/78/9 54/75/9

v 101.234 0 97.5
vt -5.32812 0
f 56/78/9 55/77/9 57/79/9

v 94.5844 3.72 97.5
vt -4.97812 0.287566
f 57/79/6 58/80/6 56/78/6

v 94.5844 0 97.5
vt -4.97812 0
f 58/80/6 57/79/6 59/81/6

v 94.5844 0 92.0686
vt -4.84571 0
vt -5.13158 0.287566
vt -5.13158 0
f 60/82/5 58/83/5 59/84/5

v 94.5844 3.72 92.0686
vt -4.84571 0.287566
f 58/83/5 60/82/5 61/85/5

v 94.5844 3.65 92.0686
vt -4.84571 0.282155
f 61/85/5 60/82/5 62/86/5

v 82.9005 3.72 92.0686
vt -4.36318 0.287566
vt -4.97812 0.282155
f 60/81/6 63/87/6 62/88/6

v 82.9005 0 92.0686
vt -4.36318 0
f 63/87/6 60/81/6 64/89/6

v 82.9005 3.74 92.0686
vt 4.84571 0.289112
vt 4.84571 0.287566
f 64/71/2 65/90/2 63/91/2

v 82.9005 0 94.4386
vt 4.97045 0
f 66/92/2 65/90/2 64/71/2

v 82.9005 3.74 94.4386
vt 4.97045 0.289112
f 65/90/2 66/92/2 67/93/2

v 82.8605 0 94.9486
vt 4.64099 0
vn -0.996938 0 -0.0781912
vt 4.61407 0.289112
vt 4.61407 0
f 68/94/10 67/95/10 66/96/10

v 82.8605 2.21 94.9486
vt 4.64099 0.170839
f 69/97/10 67/95/10 68/94/10

v 82.8605 3.74 94.9486
vt 4.64099 0.289112
f 67/95/10 69/97/10 70/98/10

vt -4.36108 0.170839
v 62.5505 3.74 94.9486
vt -3.29213 0.289112
vt -4.36108 0.289112
f 69/99/6 71/100/6 70/101/6

v 62.5505 2.21 94.9486
vt -3.29213 0.170839
f 71/100/6 69/99/6 72/102/6

vt -4.36108 -7.33977
v 62.5505 2.21 97.7786
vt -3.29213 -7.55854
vt -3.29213 -7.33977
f 69/103/1 73/104/1 72/105/1

v 82.8063 2.21 97.7786
vt -4.35823 -7.55854
f 73/104/1 69/103/1 74/106/1

v 82.8605 2.21 97.7786
vt -4.36108 -7.55854
f 74/106/1 69/103/1 75/107/1

vt 4.99729 0.170839
v 82.8605 0 97.7786
vt 5.14624 0
vt 5.14624 0.170839
f 69/108/2 76/109/2 75/110/2

vt 4.99729 0
f 76/109/2 69/108/2 68/111/2

vt -4.36108 0
v 82.8063 1.14 97.7786
vt -4.35823 0.088125
f 76/112/6 77/113/6 75/99/6

v 82.8063 0 97.7786
vt -4.35823 0
f 77/113/6 76/112/6 78/114/6

v 82.8063 0 100.719
vt 5.30098 0
vt 5.14624 0.088125
f 79/115/2 77/116/2 78/109/2

v 82.8063 1.14 100.719
vt 5.30098 0.088125
f 77/116/2 79/115/2 80/117/2

v 62.5505 1.14 100.719
vt -3.29213 0.088125
f 79/114/6 81/118/6 80/113/6

v 62.5505 0 100.719
vt -3.29213 0
f 81/118/6 79/114/6 82/119/6

v 62.5505 0 97.7786
vt -5.14624 0
vt -5.30098 0.088125
vt -5.30098 0
f 83/120/5 81/121/5 82/122/5

v 62.5505 1.14 97.7786
vt -5.14624 0.088125
f 81/121/5 83/120/5 84/123/5

v 62.5505 0 94.9486
vt -4.99729 0
f 85/124/5 84/123/5 83/120/5

vt -5.14624 0.170839
f 84/123/5 85/124/5 73/125/5

vt -4.99729 0.170839
f 73/125/5 85/124/5 72/126/5

v 62.5505 0 92.0686
f 86/82/5 72/126/5 85/124/5

vt -4.99729 0.289112
f 72/126/5 86/82/5 71/127/5

v 62.5505 3.74 92.0686
vt -4.84571 0.289112
f 71/127/5 86/82/5 87/128/5

v 62.5505 3.72 92.0686
f 87/128/5 86/82/5 88/85/5

v 49.0173 3.68 92.0686
vt -2.57986 0.284474
vt -3.29213 0.287566
f 86/119/6 89/129/6 88/130/6

v 49.0173 0 92.0686
vt -2.57986 0
f 89/129/6 86/119/6 90/131/6

v 49.0173 0 97.93
vt 5.15421 0
vt 4.84571 0.284474
f 91/132/2 89/133/2 90/71/2

v 49.0173 3.68 97.93
vt 5.15421 0.284474
f 89/133/2 91/132/2 92/134/2

v 42.9373 3.68 97.93
vt -2.25986 0.284474
f 91/131/6 93/135/6 92/129/6

v 42.9373 0 97.93
vt -2.25986 0
f 93/135/6 91/131/6 94/136/6

v 21.5273 3.68 97.93
vt -1.13301 0.284474
f 94/136/6 95/137/6 93/135/6

v 21.5273 0 97.93
vt -1.13301 0
f 95/137/6 94/136/6 96/138/6

v 15.5473 3.68 97.93
vt -0.818277 0.284474
f 96/138/6 97/139/6 95/137/6

v 15.5473 0 97.93
f 97/139/6 96/138/6 98/1/6

v 15.5473 0 92.03
vt -4.84368 0
vt -5.15421 0.284474
vt -5.15421 0
f 99/140/5 97/141/5 98/142/5

v 15.5473 3.68 92.03
vt -4.84368 0.284474
f 97/141/5 99/140/5 100/143/5

v 15.5473 0 71.2
vt -3.74737 0
f 101/144/5 100/143/5 99/140/5

v 15.5473 3.68 71.2
vt -3.74737 0.284474
f 100/143/5 101/144/5 102/145/5

f 33/53/5 102/145/5 101/144/5

f 102/145/5 33/53/5 27/38/5

v 15.5473 54.51 71.2
vt -3.74737 4.21377
f 27/38/5 103/146/5 102/145/5

v 15.5473 54.51 64.1
vt -3.37368 4.21377
f 103/146/5 27/38/5 104/147/5

f 104/147/5 27/38/5 18/35/5

vt 1.14565 4.20604
f 27/10/3 19/148/3 18/44/3

v 21.7673 3.73 64.1
vt 1.14565 0.288339
f 19/148/3 27/10/3 105/149/3

f 27/31/1 36/68/1 105/30/1

f 28/32/1 36/68/1 27/31/1

f 5/4/1 36/68/1 28/32/1

f 36/68/1 5/4/1 6/1/1

v 128.024 54.7 -0
vt 6.73812 4.22845
f 106/150/3 6/10/3 36/58/3

f 6/10/3 106/150/3 1/9/3

vt -6.73659 -1.06742e-18
vn -0.000533442 -1 2.52122e-19
vt -0.816739 -1.19664
vt -0.816739 -1.06742e-18
f 106/151/11 4/152/11 1/153/11

v 128.024 54.7 15.48
vt -6.73659 -1.19664
f 4/152/11 106/151/11 107/154/11

v 142.85 54.7 -0
vt -6.73812 -1.19664
f 108/65/1 107/155/1 106/68/1

v 142.85 54.7 15.48
vt -7.51842 -1.19664
f 107/155/1 108/65/1 109/156/1

vt 0.814737 4.22845
vt 0 4.22845
f 41/6/2 109/157/2 108/158/2

v 142.85 54.31 15.48
vt 0.814737 4.19831
f 109/157/2 41/6/2 110/159/2

vn -1.94774e-16 0 -1
vt -6.73812 4.22845
vt -7.51842 4.19831
f 41/67/12 107/160/12 110/161/12

v 128.024 3.73 15.48
f 107/160/12 41/67/12 111/66/12

f 111/155/1 38/65/1 41/156/1

f 38/65/1 111/155/1 36/68/1

vt -0.814737 4.22845
f 36/8/5 107/162/5 111/49/5

f 107/162/5 36/8/5 106/158/5

vt 7.51842 4.22845
f 36/58/3 108/163/3 106/150/3

f 108/163/3 36/58/3 38/60/3

f 41/6/2 108/158/2 38/8/2

v 121.624 3.73 64.1
vt -6.40128 -4.9551
f 112/164/1 36/68/1 111/155/1

v 101.234 3.73 64.1
vt -5.32812 -4.9551
f 113/165/1 36/68/1 112/164/1

v 94.5844 3.73 64.1
vt -4.97812 -4.9551
f 114/166/1 36/68/1 113/165/1

v 49.0173 3.73 64.1
vt -2.57986 -4.9551
f 115/167/1 36/68/1 114/166/1

v 42.7273 3.73 64.1
vt -2.2488 -4.9551
f 116/168/1 36/68/1 115/167/1

f 105/30/1 36/68/1 116/168/1

v 42.7273 3.68 64.1
vt -2.2488 0.284474
vt -1.14565 0.288339
vt -2.2488 0.288339
f 117/169/6 105/170/6 116/171/6

v 21.7673 3.68 64.1
vt -1.14565 0.284474
f 105/170/6 117/169/6 118/172/6

v 21.7673 3.68 71.2
vt -1.14565 -5.50395
f 117/168/1 119/173/1 118/30/1

v 42.7073 3.68 92.09
vt -2.24775 -7.1188
f 119/173/1 117/168/1 120/174/1

v 42.7273 3.68 71.2
vt -2.2488 -5.50395
f 120/174/1 117/168/1 121/175/1

vt -3.37368 0.284474
v 42.7273 54.28 71.2
vt -3.74737 4.19599
f 117/176/5 122/177/5 121/145/5

v 42.7273 54.28 64.1
vt -3.37368 4.19599
f 122/177/5 117/176/5 123/178/5

f 123/178/5 117/176/5 116/38/5

vt 2.2488 0.288339
v 49.0173 54.28 64.1
vt 2.57986 4.19599
vt 2.2488 4.19599
f 116/179/3 124/180/3 123/181/3

vt 2.57986 0.288339
f 124/180/3 116/179/3 115/182/3

v 49.0173 3.72 64.1
vt 3.37368 0.287566
vt 3.37368 4.19599
f 125/183/2 124/184/2 115/42/2

v 49.0173 3.72 71.2
vt 3.74737 0.287566
f 126/185/2 124/184/2 125/183/2

v 49.0173 54.28 71.2
vt 3.74737 4.19599
f 124/184/2 126/185/2 127/186/2

vt -2.57986 0.287566
vt -2.2488 4.19599
vt -2.57986 4.19599
f 126/187/6 122/188/6 127/189/6

v 49.0173 3.68 71.2
f 128/129/6 122/188/6 126/187/6

f 122/188/6 128/129/6 121/169/6

vt -2.57986 -7.11714
vt -2.57986 -5.50395
f 89/190/1 121/175/1 128/191/1

f 120/174/1 121/175/1 89/190/1

v 49.0173 3.72 92.0686
vt 2.56338 0.287566
vn 0.00339731 1.43041e-20 0.999994
vt 2.23127 0.284474
vt 2.56338 0.284474
f 129/192/13 120/193/13 89/194/13

v 42.7073 54.3 92.09
vt 2.23127 4.19753
f 120/193/13 129/192/13 130/195/13

v 49.0173 54.3 92.0686
vt 2.56338 4.19753
f 130/195/13 129/192/13 131/196/13

vt 4.84571 4.19753
f 89/133/2 131/197/2 129/91/2

f 92/134/2 131/197/2 89/133/2

v 49.0173 54.3 97.93
vt 5.15421 4.19753
f 131/197/2 92/134/2 132/198/2

v 42.9373 54.3 97.93
vt -2.25986 4.19753
vt -2.57986 4.19753
f 92/129/6 133/199/6 132/200/6

f 133/199/6 92/129/6 93/135/6

vt -2.25986 -7.57025
vt -2.57986 -7.57025
f 93/201/1 89/190/1 92/202/1

f 89/190/1 93/201/1 120/174/1

f 93/201/1 119/173/1 120/174/1

vt -1.13301 -7.57025
f 95/203/1 119/173/1 93/201/1

v 21.5273 3.68 92.03
vt -1.13301 -7.11416
f 134/204/1 119/173/1 95/203/1

vt -0.818277 -7.11416
f 100/205/1 119/173/1 134/204/1

vt -0.818277 -5.50395
f 119/173/1 100/205/1 102/206/1

v 15.5473 54.4 92.03
vt -4.84368 4.20526
f 102/145/5 135/207/5 100/143/5

f 135/207/5 102/145/5 103/146/5

vt -0.818277 4.21377
f 103/208/6 119/172/6 102/139/6

v 21.7673 54.51 71.2
vt -1.14565 4.21377
f 119/172/6 103/208/6 136/209/6

v 21.7673 54.51 64.1
f 103/206/1 137/30/1 136/173/1

f 137/30/1 103/206/1 104/31/1

v 14.8673 54.51 71.2
vt -0.782487 -5.50395
f 138/210/1 104/31/1 103/206/1

v 14.8673 54.51 64.1
vt -0.782487 -4.9551
f 104/31/1 138/210/1 139/211/1

vt 3.74737 4.21377
v 14.8673 56.71 64.23
vt 3.37368 4.21377
f 138/212/2 140/18/2 139/213/2

v 14.8673 54.4 92.03
vt 4.84368 4.20526
f 141/214/2 140/18/2 138/212/2

v 14.8673 56.71 97.83
vt 5.14895 4.38383
f 141/214/2 142/215/2 140/18/2

v 14.8673 54.4 97.93
vt 5.15421 4.20526
f 142/215/2 141/214/2 143/216/2

vt -0.782487 -7.57025
vt -0.782487 -7.11416
f 135/205/1 143/217/1 141/218/1

v 15.5473 54.4 97.93
vt -0.818277 -7.57025
f 143/217/1 135/205/1 144/219/1

vt -5.15421 4.20526
f 144/220/5 100/143/5 135/207/5

f 100/143/5 144/220/5 97/141/5

vt -0.818277 4.20526
f 144/221/6 95/137/6 97/139/6

v 21.5273 54.4 97.93
vt -1.13301 4.20526
f 95/137/6 144/221/6 145/222/6

v 21.5273 54.4 92.03
f 144/219/1 146/204/1 145/203/1

f 146/204/1 144/219/1 135/205/1

vt 0.818277 0.284474
vt 1.13301 4.20526
vt 0.818277 4.20526
f 100/223/3 146/224/3 135/225/3

vt 1.13301 0.284474
f 146/224/3 100/223/3 134/226/3

f 134/204/1 97/219/1 100/205/1

f 97/219/1 134/204/1 95/203/1

vt 4.84368 0.284474
f 95/134/2 146/214/2 134/227/2

f 146/214/2 95/134/2 145/216/2

f 145/222/6 93/135/6 95/137/6

f 93/135/6 145/222/6 133/199/6

vt -4.93154 0.284474
vn 0.999225 0 -0.0393531
vt -5.23915 4.19753
vt -5.23915 0.284474
f 120/228/14 133/229/14 93/230/14

vt -4.93154 4.19753
f 133/229/14 120/228/14 130/231/14

f 131/190/1 133/201/1 130/174/1

f 133/201/1 131/190/1 132/202/1

v 129.449 54.4 92.03
vt -6.81312 -7.11416
f 147/232/1 145/203/1 146/204/1

v 129.449 54.4 97.93
vt -6.81312 -7.57025
f 145/203/1 147/232/1 148/233/1

v 129.449 56.71 97.83
vt -5.14895 4.38383
f 147/207/5 149/234/5 148/220/5

v 129.449 56.71 64.23
vt -3.38053 4.38383
f 149/234/5 147/207/5 150/235/5

v 129.449 54.51 71.2
f 150/235/5 147/207/5 151/146/5

vt -6.81312 -7.09185
vn 2.97362e-20 -0.999986 -0.00528077
vt -1.14565 -5.48162
vt -6.81312 -5.48162
f 147/236/15 136/237/15 151/238/15

vt -1.13301 -7.09185
f 136/237/15 147/236/15 146/239/15

vt -0.818277 -7.09185
vn 0 -0.999986 -0.00528077
f 135/240/16 136/237/16 146/239/16

vt -0.818277 -5.48162
f 136/237/16 135/240/16 103/241/16

vt -0.782487 -7.09185
f 141/242/16 103/241/16 135/240/16

vt -0.782487 -5.48162
f 103/241/16 141/242/16 138/243/16

v 129.449 54.51 64.1
vt -6.81312 -4.9551
vt -6.81312 -5.50395
f 136/173/1 152/244/1 151/245/1

f 152/244/1 136/173/1 137/30/1

vt 3.74737 0.284474
f 137/213/2 119/246/2 136/212/2

vt 3.37368 0.284474
f 119/246/2 137/213/2 118/247/2

f 118/247/2 137/213/2 19/17/2

vt 1.14565 4.21377
f 137/248/3 18/44/3 19/148/3

vt 0.818277 4.21377
f 18/44/3 137/248/3 104/249/3

vt -0.818277 4.49872
vn -2.06878e-20 0.058988 -0.998259
vt -0.782487 4.66908
vt -1.14565 4.49872
f 104/250/17 140/251/17 137/252/17

vt -0.782487 4.49872
f 140/251/17 104/250/17 139/253/17

vt -6.81312 4.49872
f 137/252/17 140/251/17 152/254/17

vt -6.81312 4.66908
f 152/254/17 140/251/17 150/255/17

v 15.5473 56.71 64.23
vt -0.818277 4.66908
f 150/255/17 140/251/17 153/256/17

v 145.23 56.71 -1.66
vt 7.64368 0.128322
vn 0 1 -0
vt 0.782487 -4.96515
vt 0.818277 -4.96515
f 154/257/18 140/258/18 153/259/18

vt -0.152105 0.128322
f 11/260/18 140/258/18 154/257/18

vt -0.152105 -4.96515
f 140/258/18 11/260/18 15/261/18

vt 0.818277 4.65704
vt 0.782487 4.65704
f 15/21/4 153/262/4 140/263/4

vt 6.81312 4.65704
f 15/21/4 150/264/4 153/262/4

f 15/21/4 16/20/4 150/264/4

vt 6.81312 -4.96515
vt 7.64368 -4.96515
f 154/257/18 150/265/18 16/266/18

f 154/257/18 153/259/18 150/265/18

vt 6.81312 -7.56252
f 153/259/18 149/267/18 150/265/18

f 140/258/18 149/267/18 153/259/18

vt 0.782487 -7.56252
f 149/267/18 140/258/18 142/268/18

vt 0.782487 3.87392
vn 0 0.0432495 0.999064
vt 6.81312 4.05265
vt 0.782487 4.05265
f 143/269/19 149/270/19 142/271/19

vt 0.818277 3.87392
f 144/272/19 149/270/19 143/269/19

vt 1.13301 3.87392
f 145/273/19 149/270/19 144/272/19

vt 6.81312 3.87392
f 149/270/19 145/273/19 148/274/19

vt 0.0873684 4.38383
f 21/35/5 154/275/5 16/235/5

f 154/275/5 21/35/5 22/37/5

v 145.23 54.76 15.48
f 154/275/5 22/37/5 155/50/5

vn 2.57565e-19 -0.999953 -0.00970559
vt -7.64368 -1.1555
vt -7.64368 -3.94317
f 23/47/20 155/276/20 22/277/20

f 155/276/20 23/47/20 4/46/20

v 145.23 54.76 -1.66
vt -7.64368 0.128322
vt -7.64368 -1.19664
f 4/4/1 156/278/1 155/279/1

f 1/1/1 156/278/1 4/4/1

f 156/278/1 1/1/1 8/11/1

vt 0.152105 4.38383
vt -7.64368 4.23309
f 8/56/6 11/280/6 156/281/6

vt 0.152105 4.23309
f 11/280/6 8/56/6 10/282/6

vt -7.64368 4.38383
f 156/281/6 11/280/6 154/283/6

vt 0.0873684 4.23309
f 154/275/5 155/50/5 156/284/5

f 150/235/5 151/146/5 152/147/5

vt 1.62528 4.20604
f 137/248/3 19/148/3 20/285/3

f 19/148/3 123/181/3 20/285/3

f 105/149/3 123/181/3 19/148/3

f 123/181/3 105/149/3 116/179/3

f 118/247/2 19/17/2 105/42/2

vt 3.74737 -3.25669
vn -0.0109726 -0.99994 -8.14489e-19
vt 3.37368 -2.34083
vt 3.37368 -3.25669
f 122/286/21 20/287/21 123/288/21

vt 3.74737 -1.63633
f 136/289/21 20/287/21 122/286/21

vt 3.37368 -1.63633
f 20/287/21 136/289/21 137/290/21

f 124/167/1 122/175/1 123/168/1

f 122/175/1 124/167/1 127/191/1

f 88/130/6 89/129/6 129/187/6

vt -4.84571 0.284474
f 128/145/5 129/85/5 89/291/5

vt -3.74737 0.287566
f 129/85/5 128/145/5 126/292/5

v 94.5844 3.72 64.1
f 126/191/1 157/166/1 129/190/1

f 157/166/1 126/191/1 125/167/1

vt -2.57986 0.288339
f 115/293/6 157/80/6 125/187/6

vt -4.97812 0.288339
f 157/80/6 115/293/6 114/294/6

v 94.5844 54.16 64.1
vt 4.97812 4.18671
vt 4.97812 0.288339
f 158/295/3 115/182/3 114/296/3

f 115/182/3 158/295/3 124/180/3

v 101.234 54.16 64.1
vt 5.32812 4.18671
f 114/296/3 159/297/3 158/295/3

vt 5.32812 0.288339
f 159/297/3 114/296/3 113/298/3

v 101.234 3.65 64.1
vt 3.37368 0.282155
vt 3.37368 4.18671
f 160/299/2 159/300/2 113/42/2

v 101.234 3.65 72.16
f 161/70/2 159/300/2 160/299/2

v 101.234 54.16 72.16
vt 3.79789 4.18671
f 159/300/2 161/70/2 162/301/2

v 94.5844 3.72 72.16
vt -5.32812 4.18671
f 161/78/6 163/80/6 162/302/6

v 94.5844 3.65 72.16
f 163/80/6 161/78/6 164/88/6

vt -5.32812 -5.57816
vt -4.97812 -7.11714
vt -4.97812 -5.57816
f 161/303/1 62/304/1 164/305/1

v 101.234 3.65 92.0686
vt -5.32812 -7.11714
f 62/304/1 161/303/1 165/306/1

v 121.624 3.65 64.1
f 161/303/1 166/164/1 165/306/1

f 166/164/1 161/303/1 160/165/1

vt -5.32812 0.288339
f 113/307/6 166/75/6 160/78/6

vt -6.40128 0.288339
f 166/75/6 113/307/6 112/308/6

v 121.624 54.16 64.1
vt 6.40128 4.18671
vt 6.40128 0.288339
f 167/309/3 113/298/3 112/310/3

f 113/298/3 167/309/3 159/297/3

vn -5.66483e-16 -1 2.32677e-45
f 167/164/22 162/303/22 159/165/22

v 121.624 54.16 72.16
vt -6.40128 -5.57816
f 162/303/22 167/164/22 168/311/22

v 128.024 54.16 64.1
vt -6.73812 -4.9551
f 169/312/1 168/311/1 167/164/1

v 128.024 54.16 72.16
vt -6.73812 -5.57816
f 168/311/1 169/312/1 170/313/1

f 169/300/2 49/70/2 170/301/2

f 49/70/2 169/300/2 46/42/2

v 128.024 3.73 51.54
vt -3.37368 4.18671
f 171/36/5 169/314/5 46/38/5

v 128.024 54.31 64.1
vt -3.37368 4.19831
f 169/314/5 171/36/5 172/315/5

v 128.024 54.31 51.54
vt -2.71263 4.19831
f 172/315/5 171/36/5 173/316/5

v 142.85 54.31 51.54
vt 7.51842 4.19831
vt 6.73812 4.19831
f 171/58/3 174/317/3 173/318/3

f 174/317/3 171/58/3 43/60/3

vt -7.51842 -3.98418
vt -6.73812 -3.98418
f 43/319/1 46/312/1 171/320/1

vt -7.51842 -4.9551
f 46/312/1 43/319/1 45/321/1

vt 2.71263 4.19831
f 45/42/2 174/322/2 43/43/2

v 142.85 54.31 64.1
vt 3.37368 4.19831
f 174/322/2 45/42/2 175/323/2

vt -6.73812 4.18671
f 45/67/6 169/324/6 175/161/6

f 169/324/6 45/67/6 46/66/6

vt 6.73812 4.18671
f 169/325/3 112/310/3 46/58/3

f 112/310/3 169/325/3 167/309/3

vt -3.37368 0.282155
f 167/314/5 166/326/5 112/38/5

vt -3.79789 4.18671
f 168/327/5 166/326/5 167/314/5

v 121.624 3.65 72.16
vt -3.79789 0.282155
f 166/326/5 168/327/5 176/328/5

vt -6.40128 4.18671
vt -6.73812 0.282155
f 168/329/6 49/330/6 176/75/6

f 49/330/6 168/329/6 170/324/6

vt 6.73812 5.59075
vn 6.49479e-30 -0.999995 0.00301376
v 121.624 54.22 92.0686
vt 6.40128 7.12974
vt 6.40128 5.59075
f 170/331/23 177/332/23 168/333/23

v 128.024 54.22 92.0686
vt 6.73812 7.12974
f 177/332/23 170/331/23 178/334/23

vt 4.84571 4.19135
f 170/301/2 51/72/2 178/335/2

f 51/72/2 170/301/2 49/70/2

v 121.624 3.65 92.0686
vt -6.40128 -7.11714
vt -6.73812 -7.11714
f 179/336/1 49/313/1 51/337/1

f 49/313/1 179/336/1 176/311/1

vt -6.40128 -7.53701
f 54/338/1 176/311/1 179/336/1

f 54/338/1 166/164/1 176/311/1

vt -5.32812 -7.53701
f 56/339/1 166/164/1 54/338/1

f 165/306/1 166/164/1 56/339/1

vt 5.13158 0.282155
v 101.234 54.35 92.0686
vt 4.84571 4.2014
f 56/340/2 180/341/2 165/72/2

v 101.234 54.35 97.5
vt 5.13158 4.2014
f 180/341/2 56/340/2 181/342/2

vt -5.32812 4.2014
f 58/80/6 181/343/6 56/78/6

v 94.5844 3.73 97.5
f 181/343/6 58/80/6 182/294/6

vt -5.13158 0.288339
f 61/85/5 182/344/5 58/83/5

v 94.5844 54.35 97.5
vt -5.13158 4.2014
f 182/344/5 61/85/5 183/345/5

v 94.5844 54.35 92.0686
vt -4.84571 4.2014
f 183/345/5 61/85/5 184/346/5

vt 4.97812 0.287566
vt 5.32812 4.2014
vt 4.97812 4.2014
f 61/347/3 180/348/3 184/349/3

vt 4.97812 0.282155
f 62/350/3 180/348/3 61/347/3

vt 5.32812 0.282155
f 180/348/3 62/350/3 165/351/3

f 62/88/6 63/87/6 61/80/6

vt -4.36318 -7.11714
f 63/352/1 157/166/1 61/304/1

vt -3.29213 -7.11714
f 88/353/1 157/166/1 63/352/1

f 129/190/1 157/166/1 88/353/1

vt 4.36318 0.289112
vt 3.29213 0.287566
vt 4.36318 0.287566
f 65/354/3 88/355/3 63/356/3

vt 3.29213 0.289112
f 88/355/3 65/354/3 87/357/3

f 65/352/1 71/105/1 87/353/1

f 71/105/1 65/352/1 70/103/1

vt -4.36318 -7.30035
f 70/103/1 65/352/1 67/358/1

f 61/304/1 157/166/1 163/305/1

vt -3.37368 0.287566
v 94.5844 54.16 72.16
vt -3.79789 0.287566
f 157/359/5 185/327/5 163/360/5

f 185/327/5 157/359/5 158/314/5

f 158/314/5 157/359/5 114/38/5

f 159/165/1 185/305/1 158/166/1

f 185/305/1 159/165/1 162/303/1

vt -4.97812 4.18671
f 162/302/6 163/80/6 185/361/6

f 184/346/5 163/360/5 185/327/5

f 163/360/5 184/346/5 61/85/5

vt 3.79789 0.287566
f 163/362/2 62/72/2 61/91/2

f 62/72/2 163/362/2 164/70/2

vt 5.32812 5.61786
vn 0 -0.999954 0.0095432
vt 4.97812 7.15691
vt 4.97812 5.61786
f 162/363/24 184/364/24 185/365/24

vt 5.32812 7.15691
f 184/364/24 162/363/24 180/366/24

vt -4.97812 -7.53701
f 180/306/1 183/367/1 184/304/1

f 183/367/1 180/306/1 181/339/1

vt 4.84571 -9.37497
vn -0.00637554 -0.99998 4.99926e-19
vt 5.13158 -7.79874
vt 4.84571 -7.79874
f 177/368/25 181/369/25 180/370/25

v 121.624 54.22 97.5
vt 5.13158 -9.37497
f 181/369/25 177/368/25 186/371/25

f 178/337/1 186/338/1 177/336/1

v 128.024 54.22 97.5
vt -6.73812 -7.53701
f 186/338/1 178/337/1 187/372/1

vt 5.13158 4.19135
f 178/335/2 53/74/2 187/373/2

f 53/74/2 178/335/2 51/72/2

vt 6.73812 4.19135
vt 6.40128 0.282155
vt 6.73812 0.282155
f 178/374/3 179/375/3 51/376/3

vt 6.40128 4.19135
f 179/375/3 178/374/3 177/377/3

vt -5.13158 4.19135
vt -4.84571 4.19135
f 186/378/5 179/86/5 177/379/5

vt -5.13158 0.282155
f 179/86/5 186/378/5 54/380/5

vt -6.40128 4.19135
f 186/381/6 53/76/6 54/75/6

vt -6.73812 4.19135
f 53/76/6 186/381/6 187/382/6

vn 5.66483e-16 -4.5478e-34 -1
f 54/75/26 181/343/26 186/381/26

f 181/343/26 54/75/26 56/78/26

vt -4.97812 4.2014
f 181/343/6 182/294/6 183/383/6

f 112/164/1 111/155/1 46/312/1

f 46/312/1 111/155/1 171/320/1

f 41/156/1 171/320/1 111/155/1

f 171/320/1 41/156/1 43/319/1

f 43/43/2 110/159/2 41/6/2

f 110/159/2 43/43/2 174/322/2

vt -6.73812 4.19831
f 175/161/6 169/324/6 172/384/6

f 172/312/1 174/319/1 175/321/1

f 174/319/1 172/312/1 173/320/1

vt -7.51842 4.22845
f 110/161/12 107/160/12 109/385/12

f 73/102/6 77/113/6 84/118/6

vt -4.35823 0.170839
f 77/113/6 73/102/6 74/386/6

f 75/99/6 77/113/6 74/386/6

vt -3.29213 -7.78581
f 77/106/1 81/387/1 84/104/1

vt -4.35823 -7.78581
f 81/387/1 77/106/1 80/388/1

f 7/8/5 2/50/5 29/49/5

f 2/50/5 7/8/5 3/5/5

vt 0.152105 -1.19664
f 12/389/1 3/3/1 2/2/1

f 3/3/1 12/389/1 9/12/1

vt 0 -1.1555
vn 0 -0.999953 -0.00970559
vt 0.152105 -3.94317
vt 0.152105 -1.1555
f 2/390/27 13/391/27 12/392/27

vt 0 -3.94317
f 13/391/27 2/390/27 24/393/27

vt 0.152105 -4.9551
vt 0.152105 -3.98418
f 24/34/1 14/394/1 13/395/1

f 14/394/1 24/34/1 17/33/1

